<svg width="29" height="45" viewBox="0 0 29 45" fill="none" xmlns="http://www.w3.org/2000/svg">
<path d="M16.5943 35.6286C16.3771 35.1062 16.7899 34.4475 17.0723 34.0614C18.1369 32.585 19.8315 32.0853 21.2655 31.1768C24.2854 29.3143 26.6536 26.3389 27.8702 22.9093C28.7393 20.4562 28.8262 17.5263 29 14.9143C28.9348 15.9364 27.0881 16.7767 26.3711 17.2764C24.9372 18.2758 23.3946 19.1162 21.939 20.0928C20.2878 21.1831 18.7018 22.4777 17.6154 24.1812C15.5949 27.3383 15.1387 32.1307 16.5943 35.6286Z" fill="white"/>
<path d="M16.5943 20.7143C16.3771 20.1919 16.7899 19.5332 17.0723 19.1471C18.1369 17.6707 19.8315 17.171 21.2655 16.2625C24.2854 14.4 26.6536 11.4246 27.8702 7.99497C28.7393 5.54196 28.8262 2.61198 29 -1.52588e-05C28.9348 1.02207 27.0881 1.86245 26.3711 2.36214C24.9372 3.36151 23.3946 4.2019 21.939 5.17856C20.2878 6.26878 18.7018 7.56342 17.6154 9.2669C15.5949 12.424 15.1387 17.2165 16.5943 20.7143Z" fill="white"/>
<path d="M12.4057 44.7428C12.6229 44.2204 12.2101 43.5618 11.9277 43.1756C10.8631 41.6993 9.16848 41.1996 7.73455 40.2911C4.7146 38.4286 2.34644 35.4532 1.12977 32.0235C0.260717 29.5705 0.173809 26.6406 0 24.0286C0.0651779 25.0506 1.91192 25.891 2.62888 26.3907C4.06281 27.3901 5.60537 28.2305 7.06103 29.2071C8.71222 30.2974 10.2982 31.592 11.3846 33.2955C13.4051 36.4526 13.8613 41.245 12.4057 44.7428Z" fill="white"/>
<path d="M12.4057 29.8286C12.6229 29.3062 12.2101 28.6475 11.9277 28.2614C10.8631 26.785 9.16848 26.2853 7.73455 25.3768C4.7146 23.5143 2.34644 20.5389 1.12977 17.1093C0.260717 14.6563 0.173809 11.7263 0 9.11427C0.0651779 10.1364 1.91192 10.9767 2.62888 11.4764C4.06281 12.4758 5.60537 13.3162 7.06103 14.2928C8.71222 15.3831 10.2982 16.6777 11.3846 18.3812C13.4051 21.5383 13.8613 26.3307 12.4057 29.8286Z" fill="white"/>
</svg>
