<svg width="183" height="52" viewBox="0 0 183 52" fill="none" xmlns="http://www.w3.org/2000/svg">
<path d="M25.0329 24.2151C27.6291 26.2263 29.3235 28.9784 30.0887 32.4187H22.1088C21.5075 31.0161 20.6057 29.9311 19.4032 29.1372C18.1735 28.3433 16.725 27.9464 15.058 27.9464C12.8444 27.9464 11.068 28.7403 9.72895 30.3016C8.36252 31.8629 7.70664 33.9535 7.70664 36.5734C7.70664 39.1933 8.38985 41.2839 9.72895 42.8452C11.0954 44.4065 12.8717 45.174 15.058 45.174C16.725 45.174 18.1735 44.777 19.4032 43.9831C20.633 43.1892 21.5349 42.1042 22.1088 40.7281H30.0887C29.3235 44.1419 27.6291 46.8676 25.0329 48.9053C22.4367 50.943 19.13 51.9486 15.1673 51.9486C12.1339 51.9486 9.48299 51.3134 7.1874 50.0167C4.8918 48.72 3.11545 46.8941 1.85834 44.5653C0.628556 42.2101 0 39.5638 0 36.5734C0 33.5831 0.628556 30.9103 1.88567 28.5815C3.14278 26.2527 4.91913 24.4268 7.21473 23.1301C9.51032 21.8334 12.1612 21.1983 15.1946 21.1983C19.1573 21.1718 22.4367 22.2039 25.0329 24.2151Z" fill="white"/>
<path d="M58.8381 27.8389V51.6823H51.2407V47.3687C50.5302 48.7713 49.4917 49.8828 48.098 50.7031C46.7042 51.5235 45.0645 51.9469 43.2335 51.9469C40.4186 51.9469 38.1777 51.0471 36.5107 49.2212C34.8436 47.3952 34.0238 44.8812 34.0238 41.7056V27.8653H41.5391V40.8059C41.5391 42.4201 41.9764 43.6904 42.8509 44.5901C43.7254 45.4899 44.9005 45.9397 46.3489 45.9397C47.8793 45.9397 49.0818 45.4634 49.9563 44.5372C50.8308 43.5845 51.2681 42.2613 51.2681 40.5148V27.8653H58.8381V27.8389Z" fill="white"/>
<path d="M75.2074 28.8713C76.6831 28.0245 78.2955 27.6011 80.0445 27.6011V35.4342H77.8856C75.8906 35.4342 74.3329 35.8576 73.2398 36.678C72.1466 37.4983 71.5727 38.9009 71.5727 40.8592V51.7091H64.03V27.8657H71.5727V32.3645C72.5292 30.8825 73.7317 29.7181 75.2074 28.8713Z" fill="white"/>
<path d="M97.4248 28.7916C98.7912 29.612 99.775 30.7499 100.431 32.1789V27.8654H107.946V51.7088H100.431V47.3688C99.775 48.7978 98.7912 49.9093 97.4248 50.7561C96.0583 51.5765 94.446 51.9999 92.5603 51.9999C90.538 51.9999 88.707 51.4971 87.1219 50.518C85.5095 49.5388 84.2524 48.1098 83.3233 46.2574C82.3941 44.4049 81.9295 42.235 81.9295 39.7739C81.9295 37.2599 82.3941 35.0899 83.3233 33.2639C84.2524 31.4379 85.5095 30.0089 87.1219 29.0298C88.7343 28.0507 90.538 27.5479 92.5603 27.5479C94.4733 27.5479 96.0857 27.9713 97.4248 28.7916ZM91.1119 35.4868C90.1281 36.5189 89.6362 37.9479 89.6362 39.7474C89.6362 41.5734 90.1281 43.0024 91.1119 44.008C92.0957 45.0401 93.4075 45.5429 95.0199 45.5429C96.6049 45.5429 97.9167 45.0136 98.9278 43.9551C99.939 42.8965 100.458 41.494 100.458 39.7209C100.458 37.9214 99.939 36.5189 98.9278 35.4604C97.9167 34.4283 96.6049 33.899 95.0199 33.899C93.3802 33.952 92.0957 34.4812 91.1119 35.4868Z" fill="white"/>
<path d="M120.053 48.6652H131.094V51.7085H116.036V21.5669H120.053V48.6652Z" fill="white"/>
<path d="M139.211 28.2356V51.7085H135.194V28.2356H139.211Z" fill="white"/>
<path d="M151.892 23.7371C151.045 24.4781 150.635 25.7483 150.635 27.5743V28.2094H156.374V31.6231H150.635V51.6558H146.618V31.6231H143.12V28.2094H146.618V27.2567C146.618 21.6465 149.87 18.9737 156.374 19.2119V22.6256C154.215 22.6521 152.74 22.9961 151.892 23.7371Z" fill="white"/>
<path d="M182.856 40.8061H163.48C163.562 43.4789 164.355 45.4901 165.831 46.8397C167.306 48.1894 169.137 48.8509 171.269 48.8509C173.209 48.8509 174.849 48.3746 176.134 47.4219C177.445 46.4693 178.238 45.199 178.538 43.5848H182.829C182.528 45.199 181.873 46.6545 180.861 47.9512C179.85 49.2214 178.538 50.227 176.899 50.9415C175.286 51.656 173.455 52.0001 171.433 52.0001C169.11 52.0001 167.06 51.5237 165.257 50.5446C163.453 49.5655 162.059 48.1894 161.048 46.3899C160.037 44.5904 159.518 42.4468 159.518 40.0122C159.518 37.5511 160.037 35.4341 161.048 33.6081C162.059 31.7821 163.48 30.3796 165.257 29.4269C167.06 28.4478 169.11 27.9714 171.433 27.9714C173.783 27.9714 175.833 28.4478 177.582 29.4269C179.331 30.4061 180.67 31.7028 181.599 33.317C182.528 34.9313 182.993 36.7308 182.993 38.6891C183.02 39.483 182.966 40.1975 182.856 40.8061ZM178.074 34.5608C177.391 33.3964 176.461 32.5231 175.286 31.9409C174.111 31.3587 172.827 31.0941 171.46 31.0941C169.247 31.0941 167.388 31.7557 165.913 33.0788C164.41 34.402 163.59 36.3603 163.48 38.9008H178.976C179.058 37.1806 178.757 35.7252 178.074 34.5608Z" fill="white"/>
<path d="M136.808 24.1345C136.535 23.5258 137.054 22.7584 137.409 22.3085C138.748 20.5884 140.88 20.0062 142.684 18.9477C146.482 16.7777 149.461 13.311 150.992 9.31506C152.085 6.45703 152.194 3.04327 152.413 0C152.331 1.19085 150.008 2.16999 149.106 2.75218C147.302 3.91656 145.362 4.8957 143.531 6.03362C141.454 7.30385 139.459 8.81226 138.093 10.797C135.551 14.4754 134.977 20.0591 136.808 24.1345Z" fill="white"/>
</svg>
