<svg width="149" height="42" viewBox="0 0 149 42" fill="none" xmlns="http://www.w3.org/2000/svg">
<path d="M20.3478 19.5584C22.4581 21.1828 23.8353 23.4057 24.4573 26.1844H17.9709C17.4822 25.0515 16.7492 24.1752 15.7718 23.534C14.7721 22.8927 13.5948 22.5721 12.2398 22.5721C10.4405 22.5721 8.99656 23.2133 7.90809 24.4744C6.7974 25.7355 6.26427 27.4241 6.26427 29.5401C6.26427 31.6561 6.81962 33.3447 7.90809 34.6058C9.01878 35.8669 10.4627 36.4867 12.2398 36.4867C13.5948 36.4867 14.7721 36.1661 15.7718 35.5249C16.7714 34.8836 17.5044 34.0073 17.9709 32.8958H24.4573C23.8353 35.6531 22.4581 37.8547 20.3478 39.5005C18.2375 41.1463 15.5496 41.9585 12.3286 41.9585C9.8629 41.9585 7.70817 41.4455 5.84221 40.3982C3.97626 39.3508 2.53237 37.876 1.51053 35.9951C0.510916 34.0928 0 31.9554 0 29.5401C0 27.1248 0.510916 24.966 1.53275 23.0851C2.55458 21.2042 3.99847 19.7294 5.86443 18.682C7.73038 17.6347 9.88511 17.1217 12.3508 17.1217C15.5718 17.1003 18.2375 17.9339 20.3478 19.5584Z" fill="#01C6B2"/>
<path d="M47.826 22.4854V41.7435H41.6506V38.2595C41.073 39.3923 40.2289 40.29 39.096 40.9526C37.9631 41.6152 36.6303 41.9572 35.142 41.9572C32.8539 41.9572 31.0324 41.2305 29.6774 39.7557C28.3223 38.2809 27.6559 36.2503 27.6559 33.6854V22.5067H33.7647V32.9587C33.7647 34.2625 34.1201 35.2885 34.831 36.0152C35.5418 36.7419 36.497 37.1053 37.6743 37.1053C38.9183 37.1053 39.8957 36.7205 40.6065 35.9725C41.3174 35.203 41.6728 34.1343 41.6728 32.7236V22.5067H47.826V22.4854Z" fill="#01C6B2"/>
<path d="M61.1317 23.3193C62.3312 22.6353 63.6418 22.2933 65.0635 22.2933V28.6201H63.3086C61.687 28.6201 60.4209 28.962 59.5323 29.6246C58.6438 30.2872 58.1773 31.4201 58.1773 33.0018V41.7652H52.0463V22.507H58.1773V26.1407C58.9547 24.9437 59.9322 24.0032 61.1317 23.3193Z" fill="#01C6B2"/>
<path d="M79.1909 23.2549C80.3016 23.9175 81.1013 24.8366 81.6344 25.9908V22.5068H87.7432V41.7649H81.6344V38.2596C81.1013 39.4138 80.3016 40.3115 79.1909 40.9954C78.0802 41.658 76.7696 42 75.2368 42C73.593 42 72.1047 41.5939 70.8163 40.8031C69.5057 40.0122 68.4839 38.858 67.7286 37.3618C66.9733 35.8656 66.5957 34.113 66.5957 32.1252C66.5957 30.0946 66.9733 28.3419 67.7286 26.8671C68.4839 25.3923 69.5057 24.2381 70.8163 23.4473C72.1269 22.6564 73.593 22.2503 75.2368 22.2503C76.7918 22.2503 78.1024 22.5923 79.1909 23.2549ZM74.0595 28.6626C73.2598 29.4961 72.86 30.6504 72.86 32.1038C72.86 33.5786 73.2598 34.7328 74.0595 35.545C74.8592 36.3786 75.9255 36.7847 77.2361 36.7847C78.5245 36.7847 79.5907 36.3573 80.4126 35.5023C81.2345 34.6473 81.6566 33.5145 81.6566 32.0824C81.6566 30.629 81.2345 29.4961 80.4126 28.6412C79.5907 27.8076 78.5245 27.3801 77.2361 27.3801C75.9033 27.4229 74.8592 27.8503 74.0595 28.6626Z" fill="#01C6B2"/>
<path d="M97.5844 39.3067H106.559V41.7647H94.319V17.4195H97.5844V39.3067Z" fill="#828282"/>
<path d="M113.156 22.8057V41.7645H109.891V22.8057H113.156Z" fill="#828282"/>
<path d="M123.464 19.1723C122.776 19.7708 122.443 20.7967 122.443 22.2716V22.7845H127.107V25.5418H122.443V41.7221H119.177V25.5418H116.334V22.7845H119.177V22.0151C119.177 17.4837 121.821 15.325 127.107 15.5173V18.2746C125.353 18.296 124.153 18.5738 123.464 19.1723Z" fill="#828282"/>
<path d="M148.633 32.9588H132.884C132.95 35.1175 133.595 36.742 134.794 37.8321C135.994 38.9221 137.482 39.4565 139.215 39.4565C140.792 39.4565 142.125 39.0718 143.169 38.3023C144.235 37.5328 144.879 36.5069 145.123 35.203H148.611C148.367 36.5069 147.833 37.6824 147.012 38.7298C146.19 39.7557 145.123 40.568 143.791 41.1451C142.48 41.7222 140.992 42 139.348 42C137.46 42 135.794 41.6153 134.328 40.8244C132.861 40.0336 131.729 38.9221 130.907 37.4687C130.085 36.0153 129.663 34.284 129.663 32.3175C129.663 30.3297 130.085 28.6198 130.907 27.145C131.729 25.6702 132.884 24.5373 134.328 23.7679C135.794 22.977 137.46 22.5923 139.348 22.5923C141.258 22.5923 142.924 22.977 144.346 23.7679C145.768 24.5587 146.856 25.606 147.611 26.9099C148.367 28.2137 148.744 29.6671 148.744 31.2488C148.766 31.89 148.722 32.4671 148.633 32.9588ZM144.746 27.9145C144.19 26.974 143.435 26.2686 142.48 25.7984C141.525 25.3282 140.481 25.1144 139.37 25.1144C137.571 25.1144 136.06 25.6488 134.861 26.7175C133.639 27.7862 132.973 29.3679 132.884 31.4198H145.479C145.545 30.0305 145.301 28.8549 144.746 27.9145Z" fill="#828282"/>
<path d="M111.203 19.4932C110.981 19.0016 111.403 18.3818 111.692 18.0184C112.78 16.6291 114.513 16.1589 115.979 15.3039C119.067 13.5512 121.488 10.7512 122.732 7.5237C123.621 5.21529 123.71 2.45803 123.887 0C123.821 0.961837 121.933 1.75268 121.199 2.22291C119.733 3.16338 118.156 3.95422 116.668 4.87331C114.98 5.89927 113.358 7.11759 112.247 8.72066C110.181 11.6917 109.715 16.2016 111.203 19.4932Z" fill="#01C6B2"/>
</svg>
