<svg width="336" height="309" viewBox="0 0 336 309" fill="none" xmlns="http://www.w3.org/2000/svg">
<path d="M237.256 305.812C231.862 301.254 228.586 294.054 229.445 287.045C230.304 280.036 235.626 273.592 242.529 272.103C249.432 270.615 257.301 274.735 259.398 281.479C260.551 268.478 261.881 254.932 268.793 243.861C275.052 233.836 285.892 226.662 297.64 225.379C309.388 224.096 321.757 228.943 329.084 238.215C336.411 247.488 338.205 260.969 333.073 271.615C329.293 279.458 322.328 285.294 315.031 290.043C291.452 305.257 263.171 311.444 235.393 307.465" fill="#F2F2F2"/>
<path d="M317.466 208.031C307.773 215.927 298.88 224.757 290.916 234.396C278.454 249.428 268.369 266.281 261.013 284.369C260.474 285.689 262.617 286.263 263.149 284.958C267.827 273.522 273.614 262.572 280.428 252.265C291.054 236.163 304.072 221.776 319.033 209.598C320.14 208.697 318.564 207.137 317.466 208.031V208.031Z" fill="white"/>
<path d="M233.531 305.812C238.924 301.254 242.201 294.054 241.342 287.045C240.482 280.036 235.161 273.592 228.258 272.103C221.355 270.615 213.486 274.735 211.389 281.479C210.235 268.478 208.906 254.932 201.994 243.861C195.735 233.836 184.895 226.662 173.147 225.379C161.399 224.096 149.03 228.943 141.703 238.215C134.376 247.488 132.582 260.969 137.714 271.615C141.494 279.458 148.458 285.294 155.755 290.043C179.335 305.257 207.615 311.444 235.393 307.465" fill="#F2F2F2"/>
<path d="M153.32 208.031C163.014 215.927 171.907 224.757 179.87 234.396C192.333 249.428 202.418 266.281 209.774 284.369C210.313 285.689 208.17 286.263 207.637 284.958C195.602 255.562 176.388 229.651 151.753 209.598C150.647 208.697 152.223 207.137 153.32 208.031V208.031Z" fill="white"/>
<path d="M217.525 129.391C207.546 129.391 199.457 121.302 199.457 111.323C199.457 101.344 207.546 93.2549 217.525 93.2549C227.503 93.2549 235.592 101.344 235.592 111.323C235.592 121.302 227.503 129.391 217.525 129.391Z" fill="#F2F2F2"/>
<path d="M273.232 49.0391H148.751V55.8498H257.341C263.726 55.8497 270.048 57.1073 275.947 59.5507C281.845 61.9941 287.205 65.5754 291.72 70.0901C296.234 74.6049 299.816 79.9647 302.259 85.8636C304.702 91.7624 305.96 98.0847 305.96 104.47V181.847H319.581C320.183 181.847 320.76 181.608 321.186 181.182C321.612 180.756 321.851 180.179 321.851 179.577V97.6589C321.851 91.274 320.593 84.9517 318.15 79.0529C315.707 73.154 312.125 67.7942 307.611 63.2794C303.096 58.7647 297.736 55.1834 291.838 52.74C285.939 50.2966 279.617 49.039 273.232 49.0391Z" fill="#F2F2F2"/>
<path d="M248.919 305.85V181.62H219.345V305.85C219.346 306.685 219.615 307.486 220.095 308.076C220.575 308.667 221.226 308.999 221.904 309H246.36C247.039 308.999 247.689 308.667 248.169 308.076C248.649 307.486 248.919 306.685 248.919 305.85Z" fill="#3F3D56"/>
<path d="M328.262 179.516V95.3913C328.247 81.9992 322.92 69.16 313.451 59.6904C303.982 50.2208 291.143 44.8941 277.751 44.8789H149.334V182.43H325.348C326.12 182.429 326.861 182.122 327.407 181.575C327.954 181.029 328.261 180.288 328.262 179.516ZM150.499 46.0446H277.751C290.834 46.0594 303.376 51.2632 312.627 60.5143C321.878 69.7654 327.082 82.3083 327.096 95.3913V179.516C327.096 179.979 326.911 180.424 326.584 180.751C326.256 181.079 325.811 181.264 325.348 181.264H150.499V46.0446Z" fill="#3F3D56"/>
<path d="M217.525 120.648C220.306 120.645 222.973 119.539 224.939 117.572C226.906 115.605 228.012 112.939 228.015 110.157V34.9706C228.016 34.507 228.2 34.0625 228.528 33.7347C228.856 33.4069 229.3 33.2225 229.764 33.222H270.562C271.335 33.2211 272.075 32.9138 272.622 32.3675C273.168 31.8212 273.475 31.0805 273.476 30.3078V2.91421C273.475 2.14159 273.168 1.40087 272.622 0.854539C272.075 0.308211 271.335 0.000894687 270.562 0H209.948C209.175 0.000883911 208.434 0.3082 207.888 0.85453C207.342 1.40086 207.035 2.14159 207.034 2.91421V110.157C207.037 112.939 208.143 115.605 210.11 117.572C212.077 119.539 214.743 120.645 217.525 120.648Z" fill="#01C6B2"/>
<path d="M144.671 43.7132C135.879 43.6948 127.439 47.1699 121.209 53.3742C114.979 59.5785 111.468 68.0036 111.45 76.7962V172.563H46.1732C43.5509 172.557 41.0339 173.594 39.1757 175.444C37.3176 177.295 36.2706 179.807 36.2651 182.43H177.892V76.7962C177.874 68.0036 174.363 59.5785 168.133 53.3742C161.903 47.1699 153.463 43.6948 144.671 43.7132Z" fill="#3F3D56"/>
<path d="M152.643 98.2483L145.764 126.665L11.1999 94.0894L18.0789 65.6723C18.162 65.3248 18.3316 65.004 18.5718 64.7396C18.812 64.4752 19.1151 64.2757 19.453 64.1598C19.7025 64.0721 19.9663 64.0323 20.2306 64.0428L98.0144 23.7672C98.4702 23.5345 98.9942 23.4723 99.4918 23.5919C99.9894 23.7115 100.428 24.0051 100.728 24.4196L138.216 76.6969L152.348 96.4103C152.374 96.4448 152.392 96.4845 152.4 96.5266C152.409 96.5686 152.409 96.6121 152.4 96.6541C152.687 97.1328 152.775 97.7056 152.643 98.2483Z" fill="white"/>
<path d="M152.4 96.6541C152.393 96.691 152.379 96.7263 152.359 96.7579C152.339 96.7895 152.312 96.8168 152.281 96.8382C152.245 96.8632 152.204 96.8805 152.16 96.8891C152.117 96.8976 152.072 96.8973 152.029 96.888C151.959 96.8693 151.897 96.8266 151.855 96.7672L151.806 96.7L151.07 95.6709L137.707 77.0408L100.23 24.7754C100.017 24.4792 99.7036 24.2695 99.3484 24.1844C98.9932 24.0992 98.6192 24.1443 98.2943 24.3113L21.113 64.2749L20.4204 64.6344C20.3924 64.6462 20.3638 64.6562 20.3345 64.6645C20.2823 64.655 20.2294 64.6499 20.1763 64.6494C20.1039 64.6251 20.0435 64.5741 20.0074 64.5067C19.9886 64.4712 19.977 64.4324 19.9733 64.3924C19.9695 64.3524 19.9737 64.3121 19.9855 64.2737C19.9973 64.2354 20.0167 64.1997 20.0423 64.1688C20.0679 64.1379 20.0994 64.1124 20.1349 64.0936L20.2306 64.0428L98.0144 23.7672C98.4702 23.5345 98.9942 23.4723 99.4918 23.5919C99.9894 23.7115 100.428 24.0051 100.728 24.4196L138.216 76.6969L152.348 96.4103C152.374 96.4448 152.392 96.4845 152.4 96.5266C152.409 96.5686 152.409 96.6121 152.4 96.6541Z" fill="#3F3D56"/>
<path d="M111.986 99.5518L108.991 99.8841L86.7601 102.347L72.0228 103.978L71.1523 104.075L52.7628 89.7112L52.0583 89.161L47.7149 85.7687L32.262 73.7002L32.1693 72.8525L26.6729 23.2443C26.598 22.5612 26.797 21.8763 27.2263 21.3397C27.6555 20.8031 28.2801 20.4586 28.9629 20.3817L102.315 12.2558C102.998 12.1812 103.683 12.3804 104.22 12.8096C104.756 13.2388 105.101 13.8632 105.178 14.5459L109.054 49.5384L111.204 68.9388L113.127 86.295L114.019 94.3552L114.279 96.6899C114.353 97.3733 114.154 98.0582 113.724 98.5946C113.294 99.1311 112.669 99.4753 111.986 99.5518Z" fill="#DEB63A"/>
<path d="M91.8288 56.0683L60.055 59.5875L48.7869 60.8352C48.2894 60.8903 47.7859 60.8469 47.3052 60.7074C46.8245 60.5679 46.3759 60.3351 45.9852 60.0223C45.5945 59.7094 45.2691 59.3227 45.0279 58.8842C44.7866 58.4456 44.634 57.9638 44.5789 57.4663C44.5238 56.9688 44.5673 56.4654 44.7067 55.9846C44.8462 55.5039 45.079 55.0554 45.3918 54.6646C45.7046 54.2739 46.0914 53.9486 46.5299 53.7073C46.9684 53.466 47.4502 53.3134 47.9477 53.2583L61.9628 51.7061L90.9873 48.4877C91.9923 48.3766 93.0002 48.6692 93.7895 49.3011C94.5787 49.933 95.0848 50.8525 95.1963 51.8575C95.3079 52.8624 95.0158 53.8704 94.3843 54.6601C93.7528 55.4497 92.8337 55.9562 91.8288 56.0683Z" fill="white"/>
<path d="M93.638 70.1241C93.556 70.1387 93.474 70.1534 93.3905 70.1614L56.5062 74.2477L50.3478 74.9313C49.3427 75.0425 48.3346 74.7498 47.5452 74.1177C46.7559 73.4856 46.25 72.5658 46.1388 71.5606C46.0276 70.5555 46.3203 69.5473 46.9524 68.7579C47.5845 67.9686 48.5043 67.4626 49.5094 67.3515L58.4141 66.3663L87.6315 63.1287L92.5484 62.5838C93.5317 62.4741 94.5191 62.7511 95.3018 63.3563C96.0846 63.9614 96.6014 64.8472 96.7429 65.8265C96.8844 66.8057 96.6396 67.8016 96.0602 68.6036C95.4807 69.4056 94.6121 69.9509 93.638 70.1241V70.1241Z" fill="white"/>
<path d="M97.8124 82.5875C97.5102 83.0894 97.0963 83.5148 96.603 83.8307C96.1097 84.1466 95.5502 84.3445 94.9679 84.4091L79.8501 86.0835L52.9252 89.0665L52.9193 89.0651L52.0583 89.161L47.7149 85.7688C47.688 85.5111 47.6878 85.2513 47.7142 84.9936C47.8058 84.1283 48.19 83.3202 48.8033 82.7029C49.4166 82.0857 50.2222 81.6963 51.0869 81.5992L54.8271 81.1836L69.6642 79.5417L80.3398 78.3576L94.1296 76.8293C94.8363 76.7511 95.5508 76.8721 96.1924 77.1786C96.8339 77.4852 97.3769 77.9651 97.76 78.5641C98.1431 79.1631 98.3511 79.8574 98.3603 80.5683C98.3696 81.2793 98.1798 81.9787 97.8124 82.5875L97.8124 82.5875Z" fill="white"/>
<path d="M76.5783 38.8871L68.6726 39.7627L65.1807 40.1505L59.906 40.7343C58.9009 40.8455 57.8928 40.5528 57.1034 39.9207C56.3141 39.2886 55.8082 38.3687 55.697 37.3636C55.5858 36.3584 55.8785 35.3503 56.5106 34.5609C57.1427 33.7715 58.0625 33.2656 59.0676 33.1544L75.7361 31.3095C76.7409 31.1978 77.749 31.4898 78.5384 32.1214C79.3279 32.753 79.8342 33.6723 79.9459 34.6772C80.0576 35.682 79.7655 36.6901 79.134 37.4796C78.5024 38.2691 77.5831 38.7754 76.5783 38.8871V38.8871Z" fill="white"/>
<path d="M141.223 59.993L131.584 99.8092L115.498 102.868L100.617 105.701L84.651 108.739L79.5495 109.71C79.2509 109.767 78.9437 109.759 78.6483 109.687C78.3529 109.616 78.076 109.482 77.8363 109.295L73.7436 106.099L71.1524 104.075L52.7628 89.7111L64.4556 41.4087C64.5711 40.9282 64.8228 40.4912 65.1807 40.1503C65.4946 39.8487 65.8793 39.631 66.2995 39.5172C66.7196 39.4034 67.1617 39.3972 67.5848 39.4992L139.313 56.8636C139.981 57.0258 140.557 57.4464 140.915 58.0332C141.274 58.6199 141.384 59.3248 141.223 59.993Z" fill="#01C6B2"/>
<path d="M119.122 91.6683C118.883 92.6505 118.264 93.4978 117.402 94.0243C116.539 94.5508 115.502 94.7134 114.52 94.4764L72.4312 84.2874C71.4493 84.0482 70.6024 83.4295 70.076 82.5668C69.5496 81.7041 69.3868 80.6679 69.6231 79.6854C69.6339 79.6367 69.6476 79.5886 69.6642 79.5416C69.933 78.5943 70.558 77.7878 71.4082 77.2911C72.2584 76.7944 73.2679 76.6461 74.225 76.8772L116.314 87.0663C117.296 87.3049 118.143 87.9236 118.67 88.7864C119.196 89.6492 119.359 90.6857 119.122 91.6683Z" fill="white"/>
<path d="M115.498 102.868L100.617 105.701L69.0948 98.0704C68.1122 97.8325 67.2643 97.214 66.7377 96.351C66.2111 95.4879 66.0489 94.451 66.2867 93.4684C66.5246 92.4858 67.1431 91.6379 68.0061 91.1112C68.8691 90.5846 69.906 90.4224 70.8886 90.6603L112.977 100.849C113.857 101.061 114.632 101.58 115.161 102.313C115.289 102.488 115.401 102.674 115.498 102.868Z" fill="white"/>
<path d="M84.651 108.739L79.5495 109.71C79.2509 109.767 78.9436 109.759 78.6482 109.687C78.3528 109.616 78.076 109.482 77.8363 109.295L73.7436 106.099L84.651 108.739Z" fill="white"/>
<path d="M110.641 70.3181C110.402 71.3003 109.784 72.1476 108.921 72.6741C108.058 73.2006 107.022 73.3632 106.039 73.1262L89.7373 69.1798C88.7554 68.9406 87.9084 68.3219 87.3821 67.4592C86.8557 66.5965 86.6928 65.5603 86.9292 64.5778C87.0562 64.0498 87.2957 63.5555 87.6315 63.1287C88.0825 62.5518 88.69 62.1168 89.3815 61.8758C90.073 61.6348 90.8192 61.598 91.5311 61.7696L107.833 65.7161C108.816 65.9541 109.663 66.5726 110.19 67.4356C110.716 68.2986 110.879 69.3354 110.641 70.3181V70.3181Z" fill="white"/>
<path d="M100.618 105.701L84.6496 108.74L79.5496 109.711C79.2511 109.767 78.9442 109.759 78.649 109.687C78.3539 109.616 78.0772 109.483 77.8372 109.297L73.7417 106.099L75.1789 106.447L78.2128 108.814C78.3843 108.947 78.5819 109.042 78.7927 109.093C79.0036 109.144 79.2229 109.15 79.4361 109.11L83.2124 108.392L99.1807 105.353L100.618 105.701ZM52.9206 89.0674L52.7652 89.7096L52.0569 89.1589L52.9206 89.0674ZM100.618 105.701L84.6496 108.74L79.5496 109.711C79.2511 109.767 78.9442 109.759 78.649 109.687C78.3539 109.616 78.0772 109.483 77.8372 109.297L73.7417 106.099L75.1789 106.447L78.2128 108.814C78.3843 108.947 78.5819 109.042 78.7927 109.093C79.0036 109.144 79.2229 109.15 79.4361 109.11L83.2124 108.392L99.1807 105.353L100.618 105.701ZM100.618 105.701L84.6496 108.74L79.5496 109.711C79.2511 109.767 78.9442 109.759 78.649 109.687C78.3539 109.616 78.0772 109.483 77.8372 109.297L73.7417 106.099L75.1789 106.447L78.2128 108.814C78.3843 108.947 78.5819 109.042 78.7927 109.093C79.0036 109.144 79.2229 109.15 79.4361 109.11L83.2124 108.392L99.1807 105.353L100.618 105.701ZM152.643 98.2484L134.624 172.683C134.491 173.233 134.144 173.708 133.661 174.003C133.178 174.298 132.597 174.389 132.047 174.256L1.63289 142.685C1.08284 142.551 0.608307 142.205 0.313446 141.721C0.0186005 141.238 -0.0724945 140.658 0.0602112 140.107L18.0789 65.6724C18.162 65.325 18.3316 65.0041 18.5718 64.7397C18.812 64.4753 19.1151 64.2759 19.453 64.1599C19.7025 64.0722 19.9663 64.0325 20.2306 64.0429C20.5386 64.0518 20.8405 64.1312 21.113 64.275C21.2389 64.3348 21.3576 64.4085 21.4669 64.4948L32.1701 72.8526L47.7142 84.9953L52.9217 89.063L52.9206 89.0674L52.9251 89.0685L72.0219 103.976L75.1788 106.447L78.2128 108.814C78.3843 108.947 78.5819 109.042 78.7927 109.093C79.0036 109.144 79.2229 109.15 79.4361 109.11L83.2124 108.392L99.1807 105.353L115.163 102.313L150.168 95.6516C150.467 95.5924 150.775 95.5991 151.07 95.6711C151.468 95.7683 151.83 95.9779 152.113 96.2748C152.221 96.3915 152.317 96.5185 152.4 96.6542C152.687 97.1329 152.775 97.7057 152.643 98.2484ZM100.618 105.701L84.6496 108.74L79.5496 109.711C79.2511 109.767 78.9442 109.759 78.649 109.687C78.3539 109.616 78.0772 109.483 77.8372 109.297L73.7417 106.099L75.1789 106.447L78.2128 108.814C78.3843 108.947 78.5819 109.042 78.7927 109.093C79.0036 109.144 79.2229 109.15 79.4361 109.11L83.2124 108.392L99.1807 105.353L100.618 105.701ZM100.618 105.701L84.6496 108.74L79.5496 109.711C79.2511 109.767 78.9442 109.759 78.649 109.687C78.3539 109.616 78.0772 109.483 77.8372 109.297L73.7417 106.099L75.1789 106.447L78.2128 108.814C78.3843 108.947 78.5819 109.042 78.7927 109.093C79.0036 109.144 79.2229 109.15 79.4361 109.11L83.2124 108.392L99.1807 105.353L100.618 105.701ZM100.618 105.701L84.6496 108.74L79.5496 109.711C79.2511 109.767 78.9442 109.759 78.649 109.687C78.3539 109.616 78.0772 109.483 77.8372 109.297L73.7417 106.099L75.1789 106.447L78.2128 108.814C78.3843 108.947 78.5819 109.042 78.7927 109.093C79.0036 109.144 79.2229 109.15 79.4361 109.11L83.2124 108.392L99.1807 105.353L100.618 105.701Z" fill="white"/>
<path d="M112.487 150.51C112.548 150.049 113.113 149.751 113.473 149.593C114.838 148.983 116.249 149.326 117.642 149.272C120.556 149.194 123.465 148.056 125.744 146.12C127.373 144.735 128.642 142.688 129.842 140.903C129.375 141.603 127.716 141.438 127 141.498C125.569 141.617 124.127 141.578 122.69 141.671C121.067 141.765 119.406 142.031 117.932 142.794C115.195 144.205 112.895 147.423 112.487 150.51Z" fill="#01C6B2"/>
<path d="M118.636 139.908C118.697 139.447 119.262 139.149 119.622 138.991C120.987 138.381 122.397 138.725 123.791 138.671C126.705 138.592 129.614 137.454 131.892 135.518C133.521 134.133 134.791 132.086 135.991 130.301C135.523 131.001 133.865 130.837 133.149 130.896C131.718 131.015 130.275 130.976 128.838 131.07C127.216 131.164 125.555 131.43 124.081 132.193C121.343 133.603 119.043 136.821 118.636 139.908Z" fill="#01C6B2"/>
<path d="M105.754 155.262C106.124 154.98 106.102 154.341 106.061 153.951C105.913 152.462 104.915 151.408 104.27 150.171C102.892 147.601 102.435 144.509 102.984 141.57C103.378 139.468 104.524 137.349 105.477 135.421C105.102 136.174 106.068 137.533 106.372 138.184C106.979 139.486 107.728 140.72 108.36 142.014C109.084 143.47 109.678 145.045 109.748 146.704C109.882 149.781 108.231 153.376 105.754 155.262Z" fill="#01C6B2"/>
<path d="M111.903 144.66C112.273 144.378 112.251 143.74 112.209 143.349C112.061 141.86 111.063 140.806 110.419 139.569C109.04 137 108.584 133.908 109.133 130.968C109.526 128.866 110.673 126.748 111.626 124.819C111.251 125.573 112.217 126.932 112.52 127.583C113.127 128.885 113.877 130.118 114.509 131.413C115.233 132.869 115.826 134.443 115.896 136.102C116.031 139.18 114.379 142.774 111.903 144.66Z" fill="#01C6B2"/>
<path d="M100.618 105.701L84.6496 108.74L79.5496 109.711C79.2511 109.767 78.9442 109.759 78.649 109.687C78.3539 109.616 78.0772 109.483 77.8372 109.297L73.7417 106.099L75.1789 106.447L78.2128 108.814C78.3843 108.947 78.5819 109.042 78.7927 109.093C79.0036 109.144 79.2229 109.15 79.4361 109.11L83.2124 108.392L99.1807 105.353L100.618 105.701ZM52.9206 89.0674L52.7652 89.7096L52.0569 89.1589L52.9206 89.0674ZM100.618 105.701L84.6496 108.74L79.5496 109.711C79.2511 109.767 78.9442 109.759 78.649 109.687C78.3539 109.616 78.0772 109.483 77.8372 109.297L73.7417 106.099L75.1789 106.447L78.2128 108.814C78.3843 108.947 78.5819 109.042 78.7927 109.093C79.0036 109.144 79.2229 109.15 79.4361 109.11L83.2124 108.392L99.1807 105.353L100.618 105.701ZM100.618 105.701L84.6496 108.74L79.5496 109.711C79.2511 109.767 78.9442 109.759 78.649 109.687C78.3539 109.616 78.0772 109.483 77.8372 109.297L73.7417 106.099L75.1789 106.447L78.2128 108.814C78.3843 108.947 78.5819 109.042 78.7927 109.093C79.0036 109.144 79.2229 109.15 79.4361 109.11L83.2124 108.392L99.1807 105.353L100.618 105.701ZM151.806 96.7001L151.727 96.7596C151.714 96.7378 151.691 96.7184 151.673 96.6956C151.497 96.5118 151.277 96.3748 151.034 96.2967C150.792 96.2186 150.534 96.2019 150.283 96.2481L115.497 102.866L100.618 105.701L84.6496 108.74L79.5496 109.711C79.2511 109.767 78.9442 109.759 78.649 109.687C78.3539 109.616 78.0772 109.483 77.8372 109.297L73.7417 106.099L75.1789 106.447L78.2128 108.814C78.3843 108.947 78.5819 109.042 78.7927 109.093C79.0036 109.144 79.2229 109.15 79.4361 109.11L83.2124 108.392L99.1807 105.353L115.163 102.313L150.168 95.6516C150.467 95.5924 150.775 95.5991 151.07 95.6711L151.806 96.7001ZM152.643 98.2484L134.624 172.683C134.491 173.233 134.144 173.708 133.661 174.003C133.178 174.298 132.597 174.389 132.047 174.256L1.63289 142.685C1.08284 142.551 0.608307 142.205 0.313446 141.721C0.0186005 141.238 -0.0724945 140.658 0.0602112 140.107L18.0789 65.6724C18.162 65.325 18.3316 65.0041 18.5718 64.7397C18.812 64.4753 19.1151 64.2759 19.453 64.1599C19.7025 64.0722 19.9663 64.0325 20.2306 64.0429C20.5386 64.0518 20.8405 64.1312 21.113 64.275C21.2389 64.3348 21.3576 64.4085 21.4669 64.4948L32.1701 72.8526L47.7142 84.9953L52.9217 89.063L52.9206 89.0674L52.9251 89.0685L72.0219 103.976L75.1788 106.447L78.2128 108.814C78.3843 108.947 78.5819 109.042 78.7927 109.093C79.0036 109.144 79.2229 109.15 79.4361 109.11L83.2124 108.392L99.1807 105.353L115.163 102.313L150.168 95.6516C150.467 95.5924 150.775 95.5991 151.07 95.6711C151.468 95.7683 151.83 95.9779 152.113 96.2748C152.221 96.3914 152.317 96.5185 152.4 96.6542C152.687 97.1329 152.775 97.7057 152.643 98.2484ZM152.049 98.1046C152.102 97.8852 152.105 97.6567 152.059 97.4357C152.012 97.2148 151.917 97.0071 151.78 96.8278C151.767 96.8015 151.749 96.7782 151.727 96.7596C151.714 96.7379 151.691 96.7184 151.673 96.6957C151.497 96.5119 151.277 96.3748 151.034 96.2967C150.792 96.2186 150.534 96.2019 150.283 96.2481L115.497 102.866L100.618 105.701L84.6496 108.74L79.5496 109.711C79.2511 109.767 78.9442 109.759 78.649 109.687C78.3539 109.616 78.0772 109.483 77.8372 109.297L73.7417 106.099L71.1516 104.076L52.7652 89.7096L52.0569 89.1589L47.7168 85.7682L32.2613 73.6979L21.0878 64.9718C20.9179 64.8394 20.7218 64.7446 20.5124 64.6938C20.454 64.6795 20.3945 64.6697 20.3345 64.6646C20.2823 64.6551 20.2294 64.65 20.1764 64.6495C19.9978 64.6478 19.8202 64.6767 19.6514 64.7351C19.4106 64.819 19.1945 64.9617 19.0229 65.1503C18.8513 65.339 18.7295 65.5675 18.6687 65.8152L0.650009 140.25C0.6026 140.445 0.594101 140.648 0.625031 140.846C0.65596 141.044 0.725693 141.235 0.830246 141.406C0.934814 141.577 1.07214 141.726 1.23436 141.845C1.39658 141.963 1.58054 142.048 1.77568 142.095L132.19 173.666C132.583 173.761 132.998 173.695 133.343 173.484C133.688 173.273 133.935 172.933 134.03 172.54L152.049 98.1046ZM100.618 105.701L84.6496 108.74L79.5496 109.711C79.2511 109.767 78.9442 109.759 78.649 109.687C78.3539 109.616 78.0772 109.483 77.8372 109.297L73.7417 106.099L75.1789 106.447L78.2128 108.814C78.3843 108.947 78.5819 109.042 78.7927 109.093C79.0036 109.144 79.2229 109.15 79.4361 109.11L83.2124 108.392L99.1807 105.353L100.618 105.701ZM100.618 105.701L84.6496 108.74L79.5496 109.711C79.2511 109.767 78.9442 109.759 78.649 109.687C78.3539 109.616 78.0772 109.483 77.8372 109.297L73.7417 106.099L75.1789 106.447L78.2128 108.814C78.3843 108.947 78.5819 109.042 78.7927 109.093C79.0036 109.144 79.2229 109.15 79.4361 109.11L83.2124 108.392L99.1807 105.353L100.618 105.701ZM100.618 105.701L84.6496 108.74L79.5496 109.711C79.2511 109.767 78.9442 109.759 78.649 109.687C78.3539 109.616 78.0772 109.483 77.8372 109.297L73.7417 106.099L75.1789 106.447L78.2128 108.814C78.3843 108.947 78.5819 109.042 78.7927 109.093C79.0036 109.144 79.2229 109.15 79.4361 109.11L83.2124 108.392L99.1807 105.353L100.618 105.701Z" fill="#3F3D56"/>
<path d="M35.6228 128.061C35.9166 126.841 35.7146 125.555 35.0611 124.484C34.4076 123.413 33.356 122.645 32.137 122.348L15.677 118.363C14.459 118.073 13.1756 118.277 12.1079 118.931C11.0402 119.585 10.2753 120.636 9.98067 121.853C9.68606 123.07 9.8858 124.354 10.5361 125.424C11.1865 126.494 12.2344 127.263 13.4503 127.562L29.9103 131.547C31.13 131.84 32.4164 131.638 33.4873 130.985C34.5582 130.331 35.3262 129.28 35.6228 128.061Z" fill="#01C6B2"/>
<path d="M217.525 114.237C215.271 114.237 213.445 112.411 213.445 110.157C213.445 107.904 215.271 106.077 217.525 106.077C219.778 106.077 221.604 107.904 221.604 110.157C221.604 112.411 219.778 114.237 217.525 114.237Z" fill="white"/>
</svg>
