<svg width="46" height="28" viewBox="0 0 46 28" fill="none" xmlns="http://www.w3.org/2000/svg">
<rect width="45.6844" height="27.6689" rx="2.13333" fill="white"/>
<path fill-rule="evenodd" clip-rule="evenodd" d="M18.0547 18.4603L19.5134 9.66431H21.8451L20.3865 18.4603H18.0547Z" fill="#26337A"/>
<path fill-rule="evenodd" clip-rule="evenodd" d="M28.8442 9.88028C28.3831 9.70374 27.6581 9.51123 26.7548 9.51123C24.4495 9.51123 22.8268 10.7049 22.8133 12.4141C22.7987 13.6785 23.9713 14.3836 24.8553 14.8038C25.7639 15.2345 26.0692 15.5102 26.0656 15.8954C26.0593 16.4845 25.3404 16.7544 24.67 16.7544C23.7364 16.7544 23.2405 16.6215 22.4737 16.2931L22.1737 16.1531L21.8477 18.122C22.3914 18.367 23.3993 18.5796 24.4454 18.5908C26.8954 18.5908 28.4873 17.4116 28.506 15.5863C28.5144 14.5837 27.893 13.8238 26.5474 13.1964C25.7326 12.7885 25.2325 12.5183 25.2382 12.1055C25.2388 11.7399 25.6607 11.3486 26.574 11.3486C27.3367 11.3366 27.8888 11.5078 28.319 11.6866L28.5284 11.7871L28.8442 9.88028Z" fill="#26337A"/>
<path fill-rule="evenodd" clip-rule="evenodd" d="M31.9503 15.3418C32.1436 14.8363 32.8792 12.8832 32.8792 12.8832C32.8656 12.9064 33.0714 12.3737 33.1891 12.044L33.3465 12.8027C33.3465 12.8027 33.7939 14.9021 33.8861 15.3418C33.5231 15.3418 32.4056 15.3418 31.9503 15.3418ZM34.8266 9.67334H33.0247C32.4658 9.67334 32.0474 9.82896 31.8026 10.4025L28.3398 18.4635H30.7889C30.7889 18.4635 31.1884 17.3791 31.2791 17.1411C31.5462 17.1411 33.9259 17.1456 34.2656 17.1456C34.3355 17.4526 34.5495 18.4635 34.5495 18.4635H36.7137L34.8266 9.67334Z" fill="#26337A"/>
<path fill-rule="evenodd" clip-rule="evenodd" d="M16.0965 9.67188L13.8143 15.6686L13.5698 14.4496C13.1446 13.0452 11.8207 11.5228 10.3398 10.7601L12.4277 18.4528L14.8954 18.4514L18.5674 9.67188H16.0965Z" fill="#26337A"/>
<path fill-rule="evenodd" clip-rule="evenodd" d="M11.6973 9.66577H7.93719L7.90625 9.84802C10.8321 10.5766 12.7679 12.3354 13.5714 14.4495L12.7543 10.4079C12.6134 9.85049 12.2037 9.68526 11.6973 9.66577Z" fill="#EC982D"/>
</svg>
