<svg width="51" height="34" viewBox="0 0 51 34" fill="none" xmlns="http://www.w3.org/2000/svg">
<path opacity="0.07" d="M46.9737 0H4.02632C1.74474 0 0 1.84167 0 4.25V29.75C0 32.1583 1.87895 34 4.02632 34H46.9737C49.2553 34 51 32.1583 51 29.75V4.25C51 1.84167 49.1211 0 46.9737 0Z" fill="black"/>
<path d="M46.9739 1.41602C48.4502 1.41602 49.6581 2.69102 49.6581 4.24935V29.7493C49.6581 31.3077 48.4502 32.5827 46.9739 32.5827H4.02656C2.55024 32.5827 1.34235 31.3077 1.34235 29.7493V4.24935C1.34235 2.69102 2.55024 1.41602 4.02656 1.41602H46.9739Z" fill="#006FCF"/>
<path d="M12.0401 14.547L13.0789 17.2047H11.0093L12.0401 14.547ZM33.6144 14.6575H29.619V15.8291H33.55V17.5843H29.627V18.8905H33.6225V19.9374L36.41 16.757L33.6225 13.442L33.6144 14.6575ZM14.7404 11.3425H20.1021L21.2925 14.0837L22.3958 11.334H36.3134L37.7602 13.0198L39.2566 11.334H45.6491L40.9262 16.791L45.6008 22.214H39.113L37.6662 20.5282L36.1564 22.214H13.4614L12.7984 20.5282H11.2818L10.6174 22.214H5.36847L9.77863 11.334H14.382L14.7404 11.3425ZM26.3671 12.8697H23.3621L21.3489 17.879L19.168 12.8697H16.1858V19.6838L13.4211 12.8697H10.7463L7.54939 20.6783H9.63636L10.2994 18.9925H13.7835L14.4465 20.6783H18.097V15.1037L20.447 20.6868H22.0441L24.3794 15.1207V20.6882H26.3362L26.3684 12.8682L26.3671 12.8697ZM38.9023 16.791L42.2992 12.8697H39.8539L37.7052 15.3148L35.6276 12.8697H27.7172V20.6868H35.5148L37.681 18.2247L39.7586 20.6868H42.275L38.9037 16.791H38.9023Z" fill="white"/>
</svg>
