<svg width="55" height="34" viewBox="0 0 55 34" fill="none" xmlns="http://www.w3.org/2000/svg">
<path opacity="0.07" d="M50.1058 0H4.29523C1.86154 0 0.000488281 1.84167 0.000488281 4.25V29.75C0.000488281 32.1583 2.0047 34 4.29523 34H50.1058C52.5394 34 54.4005 32.1583 54.4005 29.75V4.25C54.4005 1.84167 52.3963 0 50.1058 0Z" fill="black"/>
<path d="M50.1062 1.41602C51.6809 1.41602 52.9693 2.69102 52.9693 4.24935V29.7493C52.9693 31.3077 51.6809 32.5827 50.1062 32.5827H4.29565C2.72092 32.5827 1.4325 31.3077 1.4325 29.7493V4.24935C1.4325 2.69102 2.72092 1.41602 4.29565 1.41602H50.1062Z" fill="white"/>
<path d="M21.4738 26.9173C27.0083 26.9173 31.4948 22.4775 31.4948 17.0007C31.4948 11.5238 27.0083 7.08398 21.4738 7.08398C15.9393 7.08398 11.4527 11.5238 11.4527 17.0007C11.4527 22.4775 15.9393 26.9173 21.4738 26.9173Z" fill="#EB001B"/>
<path d="M32.9274 26.9173C38.4619 26.9173 42.9485 22.4775 42.9485 17.0007C42.9485 11.5238 38.4619 7.08398 32.9274 7.08398C27.393 7.08398 22.9064 11.5238 22.9064 17.0007C22.9064 22.4775 27.393 26.9173 32.9274 26.9173Z" fill="#F79E1B"/>
<path d="M31.4958 17.0003C31.4958 13.6003 29.778 10.6253 27.2011 8.92529C24.6243 10.767 22.9064 13.742 22.9064 17.0003C22.9064 20.2586 24.6243 23.3753 27.2011 25.0753C29.778 23.3753 31.4958 20.4003 31.4958 17.0003Z" fill="#FF5F00"/>
</svg>
