<svg width="52" height="34" viewBox="0 0 52 34" fill="none" xmlns="http://www.w3.org/2000/svg">
<path opacity="0.07" d="M47.3742 0H4.42683C2.14525 0 0.400513 1.84167 0.400513 4.25V29.75C0.400513 32.1583 2.27946 34 4.42683 34H47.3742C49.6558 34 51.4005 32.1583 51.4005 29.75V4.25C51.4005 1.84167 49.5216 0 47.3742 0Z" fill="black"/>
<path d="M47.3737 1.41602C48.85 1.41602 50.0579 2.69102 50.0579 4.24935V29.7493C50.0579 31.3077 48.85 32.5827 47.3737 32.5827H4.42634C2.95002 32.5827 1.74213 31.3077 1.74213 29.7493V4.24935C1.74213 2.69102 2.95002 1.41602 4.42634 1.41602H47.3737Z" fill="white"/>
<path d="M38.3826 14.309H37.98C37.4432 15.7257 37.0405 16.434 36.6379 18.559H39.1879C38.7853 16.434 38.7853 15.4423 38.3826 14.309ZM42.2747 22.6673H39.9932C39.8589 22.6673 39.8589 22.6673 39.7247 22.5257L39.4563 21.2507L39.3221 20.9673H36.101C35.9668 20.9673 35.8326 20.9673 35.8326 21.2507L35.43 22.5257C35.43 22.6673 35.2958 22.6673 35.2958 22.6673H32.4774L32.7458 21.959L36.6379 12.3257C36.6379 11.6173 37.0405 11.334 37.7116 11.334H39.7247C39.8589 11.334 39.9932 11.334 39.9932 11.6173L41.8721 20.8257C42.0063 21.3923 42.1405 21.8173 42.1405 22.384C42.2747 22.5257 42.2747 22.5257 42.2747 22.6673ZM24.2905 22.2423L24.8274 19.6923C24.9616 19.6923 25.0958 19.834 25.0958 19.834C26.0353 20.259 26.9747 20.5423 27.9142 20.4007C28.1826 20.4007 28.5853 20.259 28.8537 20.1173C29.5247 19.834 29.5247 19.1257 28.9879 18.559C28.7195 18.2757 28.3168 18.134 27.9142 17.8507C27.3774 17.5673 26.8405 17.284 26.4379 16.859C24.8274 15.4423 25.3642 13.459 26.3037 12.4673C27.1089 11.9007 27.5116 11.334 28.5853 11.334C30.1958 11.334 31.9405 11.334 32.7458 11.6173H32.88C32.7458 12.4673 32.6116 13.1757 32.3432 14.0257C31.6721 13.7423 31.001 13.459 30.33 13.459C29.9274 13.459 29.5247 13.459 29.1221 13.6007C28.8537 13.6007 28.7195 13.7423 28.5853 13.884C28.3168 14.1673 28.3168 14.5923 28.5853 14.8757L29.2563 15.4423C29.7932 15.7257 30.33 16.009 30.7326 16.2923C31.4037 16.7173 32.0747 17.4257 32.2089 18.2757C32.4774 19.5507 32.0747 20.684 31.001 21.534C30.33 22.1007 30.0616 22.384 29.1221 22.384C27.2432 22.384 25.7668 22.5257 24.5589 22.1007C24.4247 22.384 24.4247 22.384 24.2905 22.2423ZM19.5932 22.6673C19.7274 21.6757 19.7274 21.6757 19.8616 21.2507C20.5326 18.134 21.2037 14.8757 21.7405 11.759C21.8747 11.4757 21.8747 11.334 22.1432 11.334H24.5589C24.2905 13.034 24.0221 14.309 23.6195 15.8673C23.2168 17.9923 22.8142 20.1173 22.2774 22.2423C22.2774 22.5257 22.1432 22.5257 21.8747 22.5257L19.5932 22.6673ZM7.11157 11.6173C7.11157 11.4757 7.37999 11.334 7.5142 11.334H12.0774C12.7484 11.334 13.2853 11.759 13.4195 12.4673L14.6274 18.7007C14.6274 18.8423 14.6274 18.8423 14.7616 18.984C14.7616 18.8423 14.8958 18.8423 14.8958 18.8423L17.7142 11.6173C17.58 11.4757 17.7142 11.334 17.8484 11.334H20.6668C20.6668 11.4757 20.6668 11.4757 20.5326 11.6173L16.3721 21.959C16.2379 22.2423 16.2379 22.384 16.1037 22.5257C15.9695 22.6673 15.701 22.5257 15.4326 22.5257H13.4195C13.2853 22.5257 13.151 22.5257 13.151 22.2423L11.0037 13.459C10.7353 13.1757 10.3326 12.7507 9.79578 12.609C8.99052 12.184 7.5142 11.9007 7.24578 11.9007L7.11157 11.6173Z" fill="#142688"/>
</svg>
