<svg width="46" height="28" viewBox="0 0 46 28" fill="none" xmlns="http://www.w3.org/2000/svg">
<rect width="45.6844" height="27.6689" rx="2.13333" fill="white"/>
<path fill-rule="evenodd" clip-rule="evenodd" d="M25.941 13.3413C25.941 19.0528 21.2535 23.6823 15.4707 23.6823C9.68784 23.6823 5 19.0528 5 13.3413C5 7.62997 9.68784 3 15.4707 3C21.2535 3 25.941 7.62997 25.941 13.3413Z" fill="#CC0000"/>
<path fill-rule="evenodd" clip-rule="evenodd" d="M29.5284 3C26.8224 3 24.3576 4.01372 22.4991 5.67672C22.121 6.01566 21.768 6.38173 21.4422 6.7715H23.5577C23.8466 7.11894 24.1129 7.48419 24.3559 7.86677H20.6438C20.4218 8.2183 20.2199 8.58355 20.0405 8.96204H24.9589C25.127 9.3165 25.2749 9.68159 25.4023 10.0568H19.5971C19.4763 10.4134 19.3744 10.7788 19.293 11.1514H25.7061C25.8597 11.8574 25.9414 12.5899 25.9414 13.3413C25.9414 14.4894 25.752 15.5944 25.4023 16.6265H19.5971C19.7245 17.0014 19.8724 17.3669 20.0402 17.7219H24.9589C24.7792 18.0994 24.5783 18.465 24.3549 18.817H20.6438C20.8859 19.1984 21.1527 19.5642 21.4422 19.9111H23.5571C23.2319 20.3012 22.8786 20.6673 22.4994 21.0062C24.3577 22.6692 26.8224 23.6823 29.5284 23.6823C35.311 23.6823 39.9987 19.0528 39.9987 13.3413C39.9987 7.63046 35.311 3 29.5284 3Z" fill="#FF9900"/>
<path fill-rule="evenodd" clip-rule="evenodd" d="M13.0226 14.4735C12.9033 14.4601 12.8507 14.4559 12.7688 14.4559C12.1244 14.4559 11.7986 14.6742 11.7986 15.1055C11.7986 15.371 11.9576 15.5399 12.2058 15.5399C12.669 15.5399 13.0027 15.1045 13.0226 14.4735ZM13.8494 16.3743C13.6978 16.3743 12.9072 16.3743 12.9072 16.3743L12.9289 15.9323C12.6416 16.2813 12.2582 16.448 11.7375 16.448C11.1217 16.448 10.6992 15.9731 10.6992 15.283C10.6992 14.2441 11.4337 13.6383 12.6947 13.6383C12.824 13.6383 12.9891 13.65 13.1582 13.6711C13.1933 13.5302 13.2026 13.4704 13.2026 13.3944C13.2026 13.112 13.0047 13.0061 12.4737 13.0061C11.9176 13.0006 11.4589 13.1374 11.2704 13.1985C11.2823 13.1276 11.4281 12.239 11.4281 12.239C11.9943 12.0746 12.368 12.0132 12.7884 12.0132C13.7647 12.0132 14.2817 12.4459 14.2806 13.264C14.2826 13.4835 14.2457 13.7533 14.1886 14.1093C14.09 14.727 13.8782 16.0519 13.8494 16.3743Z" fill="white"/>
<path fill-rule="evenodd" clip-rule="evenodd" d="M10.2263 16.3743H9.08933L9.74094 12.3423L8.28665 16.3743H7.5121L7.41629 12.3649L6.73192 16.3743H5.66797L6.55669 11.1289H8.19134L8.29012 14.065L9.28739 11.1289H11.1054L10.2263 16.3743Z" fill="white"/>
<path fill-rule="evenodd" clip-rule="evenodd" d="M30.9342 14.4735C30.8149 14.4601 30.7629 14.4558 30.6812 14.4558C30.0364 14.4558 29.7109 14.6741 29.7109 15.1054C29.7109 15.371 29.8692 15.5398 30.1181 15.5398C30.5809 15.5398 30.9148 15.1044 30.9342 14.4735ZM31.7555 16.3743C31.6036 16.3743 30.8136 16.3743 30.8136 16.3743L30.835 15.9323C30.5477 16.2813 30.1645 16.448 29.6441 16.448C29.0274 16.448 28.6055 15.9731 28.6055 15.283C28.6055 14.2441 29.3403 13.6383 30.601 13.6383C30.7301 13.6383 30.8949 13.65 31.0641 13.6711C31.0994 13.5302 31.1085 13.4704 31.1085 13.3944C31.1085 13.112 30.9106 13.0061 30.3796 13.0061C29.8235 13.0006 29.365 13.1374 29.1758 13.1985C29.1884 13.1276 29.3345 12.239 29.3345 12.239C29.9004 12.0746 30.2744 12.0132 30.6942 12.0132C31.6711 12.0132 32.1875 12.4459 32.1865 13.264C32.1885 13.4835 32.1519 13.7533 32.0945 14.1093C31.9962 14.727 31.7839 16.0519 31.7555 16.3743Z" fill="white"/>
<path fill-rule="evenodd" clip-rule="evenodd" d="M18.9068 16.3096C18.5956 16.4063 18.3532 16.4481 18.0901 16.4481C17.5091 16.4481 17.1919 16.1184 17.1919 15.5109C17.1838 15.3223 17.2755 14.8263 17.3476 14.374C17.4135 13.9754 17.8407 11.4629 17.8407 11.4629H18.9703L18.8385 12.1086H19.521L19.367 13.1339H18.6821C18.5509 13.945 18.3637 14.9556 18.3616 15.0896C18.3616 15.3096 18.4804 15.4057 18.7509 15.4057C18.8805 15.4057 18.9808 15.3926 19.0574 15.3655L18.9068 16.3096Z" fill="white"/>
<path fill-rule="evenodd" clip-rule="evenodd" d="M22.3649 16.275C21.9767 16.3921 21.6026 16.4493 21.2056 16.448C19.9406 16.4464 19.2812 15.7943 19.2812 14.5449C19.2812 13.0869 20.12 12.0132 21.2589 12.0132C22.1903 12.0132 22.7855 12.6143 22.7855 13.5566C22.7855 13.8698 22.7448 14.1751 22.646 14.6059H20.396C20.3201 15.2248 20.7208 15.4825 21.3785 15.4825C21.7824 15.4825 22.1475 15.4001 22.553 15.2143L22.3649 16.275ZM21.7304 13.7461C21.7368 13.657 21.85 12.9845 21.2042 12.9845C20.8448 12.9845 20.5872 13.2555 20.4828 13.7461H21.7304Z" fill="white"/>
<path fill-rule="evenodd" clip-rule="evenodd" d="M14.5319 13.4572C14.5319 13.9963 14.7967 14.3685 15.3973 14.6481C15.8575 14.862 15.9291 14.9252 15.9291 15.1189C15.9291 15.3845 15.726 15.5051 15.2764 15.5051C14.937 15.5051 14.6216 15.4524 14.2578 15.3362C14.2578 15.3362 14.1087 16.2769 14.1016 16.3219C14.3599 16.3771 14.5902 16.4286 15.2845 16.448C16.4838 16.448 17.0378 15.997 17.0378 15.0221C17.0378 14.4361 16.8061 14.0921 16.2366 13.8332C15.7602 13.6174 15.7051 13.569 15.7051 13.3699C15.7051 13.1393 15.8942 13.0215 16.2614 13.0215C16.4846 13.0215 16.7892 13.045 17.0783 13.0854L17.24 12.096C16.9458 12.0498 16.4993 12.0132 16.2396 12.0132C14.9681 12.0132 14.5278 12.669 14.5319 13.4572Z" fill="white"/>
<path fill-rule="evenodd" clip-rule="evenodd" d="M27.9004 12.1256C28.2161 12.1256 28.511 12.2067 28.9162 12.4089L29.1024 11.2704C28.9352 11.2057 28.3493 10.8264 27.8529 10.8264C27.0924 10.8264 26.4488 11.1997 25.9969 11.8143C25.337 11.5986 25.0655 12.0346 24.7332 12.4693L24.4378 12.5373C24.4602 12.3943 24.4805 12.2523 24.4741 12.1083H23.4296C23.2873 13.4289 23.0347 14.7661 22.8369 16.0872L22.7852 16.3742H23.9224C24.1122 15.156 24.2159 14.3763 24.2792 13.8481L24.7074 13.6138C24.7718 13.3783 24.9715 13.2992 25.3732 13.3088C25.3208 13.587 25.2923 13.88 25.2923 14.1831C25.2923 15.579 26.0558 16.4479 27.2789 16.4479C27.5941 16.4479 27.8648 16.407 28.284 16.2943L28.4832 15.099C28.1062 15.2818 27.7976 15.368 27.5178 15.368C26.857 15.368 26.457 14.886 26.457 14.09C26.457 12.9348 27.0514 12.1256 27.9004 12.1256Z" fill="white"/>
<path fill-rule="evenodd" clip-rule="evenodd" d="M37.5189 11.1289L37.2662 12.6443C36.9559 12.2405 36.622 11.948 36.1812 11.948C35.6077 11.948 35.0857 12.3775 34.7438 13.0099C34.2678 12.9124 33.7758 12.7465 33.7758 12.7465L33.7755 12.7506C33.8134 12.3971 33.8294 12.182 33.8256 12.1085H32.7814C32.6396 13.4291 32.3866 14.7662 32.189 16.0874L32.1367 16.3743H33.2743C33.4279 15.3899 33.5452 14.5714 33.6317 13.9233C34.0206 13.5762 34.2151 13.2743 34.6071 13.2939C34.4332 13.7094 34.3318 14.1876 34.3318 14.6782C34.3318 15.7442 34.8775 16.448 35.7042 16.448C36.1208 16.448 36.4405 16.306 36.7523 15.9772L36.6986 16.374H37.7742L38.6401 11.1289H37.5189ZM36.104 15.3888C35.7171 15.3888 35.5212 15.1055 35.5212 14.5479C35.5212 13.7093 35.8874 13.115 36.4028 13.115C36.7935 13.115 37.0053 13.4085 37.0053 13.9504C37.0053 14.7961 36.633 15.3888 36.104 15.3888Z" fill="white"/>
<path fill-rule="evenodd" clip-rule="evenodd" d="M10.5542 16.063H9.41762L10.0691 12.031L8.6151 16.063H7.84022L7.74458 12.0544L7.06005 16.063H5.99609L6.88482 10.8181H8.51946L8.56513 14.065L9.66813 10.8181H11.4335L10.5542 16.063Z" fill="white"/>
<path fill-rule="evenodd" clip-rule="evenodd" d="M13.3501 14.1628C13.231 14.1491 13.1784 14.1453 13.0965 14.1453C12.4521 14.1453 12.1262 14.3633 12.1262 14.7943C12.1262 15.0595 12.2853 15.2293 12.5337 15.2293C12.9967 15.2293 13.3304 14.7939 13.3501 14.1628ZM14.1772 16.063C14.0258 16.063 13.2355 16.063 13.2355 16.063L13.257 15.6213C12.9698 15.9702 12.5864 16.1371 12.0656 16.1371C11.4496 16.1371 11.0273 15.6615 11.0273 14.9715C11.0273 13.9325 11.762 13.3275 13.023 13.3275C13.1519 13.3275 13.3171 13.3391 13.4863 13.3607C13.5214 13.2195 13.5307 13.1595 13.5307 13.0832C13.5307 12.8009 13.3328 12.6958 12.8018 12.6958C12.2455 12.6893 11.787 12.8261 11.5984 12.8871C11.6104 12.8165 11.7561 11.9279 11.7561 11.9279C12.3225 11.7638 12.6961 11.7019 13.1165 11.7019C14.0926 11.7019 14.6095 12.1351 14.6087 12.9529C14.6105 13.1721 14.574 13.4432 14.5167 13.7981C14.4179 14.4154 14.2061 15.7411 14.1772 16.063Z" fill="white"/>
<path fill-rule="evenodd" clip-rule="evenodd" d="M29.4228 10.9594L29.2367 12.0977C28.8308 11.8962 28.5368 11.8146 28.2214 11.8146C27.3727 11.8146 26.7773 12.6247 26.7773 13.7801C26.7773 14.5762 27.1774 15.0571 27.8383 15.0571C28.1183 15.0571 28.4275 14.9717 28.8036 14.7881L28.6039 15.9834C28.1855 16.096 27.9146 16.1372 27.5995 16.1372C26.3756 16.1372 25.6133 15.2681 25.6133 13.8726C25.6133 11.9975 26.6671 10.687 28.1736 10.687C28.67 10.687 29.2562 10.8947 29.4228 10.9594Z" fill="white"/>
<path fill-rule="evenodd" clip-rule="evenodd" d="M31.2561 14.1628C31.1377 14.1491 31.0849 14.1453 31.0031 14.1453C30.3591 14.1453 30.033 14.3633 30.033 14.7943C30.033 15.0595 30.192 15.2293 30.4402 15.2293C30.903 15.2293 31.2371 14.7939 31.2561 14.1628ZM32.0833 16.063C31.932 16.063 31.1416 16.063 31.1416 16.063L31.1629 15.6213C30.8757 15.9702 30.4923 16.1371 29.9721 16.1371C29.3554 16.1371 28.9336 15.6615 28.9336 14.9715C28.9336 13.9325 29.6676 13.3275 30.929 13.3275C31.0579 13.3275 31.2227 13.3391 31.3918 13.3607C31.427 13.2195 31.4363 13.1595 31.4363 13.0832C31.4363 12.8009 31.2389 12.6958 30.7076 12.6958C30.1518 12.6893 29.6934 12.8261 29.5045 12.8871C29.5164 12.8165 29.6621 11.9279 29.6621 11.9279C30.2285 11.7638 30.6018 11.7019 31.0223 11.7019C31.9984 11.7019 32.5158 12.1351 32.5145 12.9529C32.5168 13.1721 32.4799 13.4432 32.4226 13.7981C32.3242 14.4154 32.1124 15.7411 32.0833 16.063Z" fill="white"/>
<path fill-rule="evenodd" clip-rule="evenodd" d="M19.231 15.9982C18.9201 16.0949 18.6774 16.1369 18.4146 16.1369C17.8335 16.1369 17.5161 15.807 17.5161 15.2002C17.5082 15.011 17.6 14.5158 17.6723 14.0629C17.7377 13.664 18.1651 11.1519 18.1651 11.1519H19.295L19.1628 11.7974H19.743L19.5884 12.8224H19.0065C18.8753 13.6343 18.6881 14.6442 18.6858 14.7782C18.6858 14.9989 18.8051 15.0943 19.0753 15.0943C19.2049 15.0943 19.305 15.0817 19.3819 15.0539L19.231 15.9982Z" fill="white"/>
<path fill-rule="evenodd" clip-rule="evenodd" d="M22.6971 15.9645C22.3087 16.082 21.9338 16.1374 21.5373 16.1371C20.2722 16.1363 19.6133 15.4834 19.6133 14.2342C19.6133 12.7756 20.4519 11.7019 21.5899 11.7019C22.5224 11.7019 23.1172 12.303 23.1172 13.2464C23.1172 13.5591 23.0758 13.8642 22.9782 14.2951H20.7279C20.6516 14.914 21.0528 15.1722 21.7099 15.1722C22.1141 15.1722 22.479 15.0895 22.8851 14.9032L22.6971 15.9645ZM22.0632 13.4347C22.0693 13.3455 22.183 12.6733 21.5373 12.6733C21.1776 12.6733 20.92 12.9448 20.8152 13.4347H22.0632Z" fill="white"/>
<path fill-rule="evenodd" clip-rule="evenodd" d="M14.8636 13.1459C14.8636 13.686 15.1287 14.0573 15.7295 14.3373C16.1897 14.551 16.261 14.6143 16.261 14.8081C16.261 15.074 16.058 15.194 15.6081 15.194C15.269 15.194 14.9535 15.142 14.5895 15.0261C14.5895 15.0261 14.4405 15.9661 14.4336 16.0104C14.6917 16.0663 14.9222 16.1173 15.6162 16.1371C16.8158 16.1371 17.3698 15.6862 17.3698 14.7114C17.3698 14.125 17.1378 13.7811 16.5684 13.5229C16.0919 13.3064 16.0371 13.2585 16.0371 13.0591C16.0371 12.8285 16.2261 12.7099 16.5936 12.7099C16.8163 12.7099 17.1213 12.7344 17.4102 12.7746L17.572 11.7854C17.2776 11.7395 16.8315 11.7019 16.5716 11.7019C15.2998 11.7019 14.8598 12.3579 14.8636 13.1459Z" fill="white"/>
<path fill-rule="evenodd" clip-rule="evenodd" d="M38.1027 16.063H37.0275L37.0808 15.6661C36.7689 15.9951 36.4493 16.1371 36.0327 16.1371C35.2067 16.1371 34.6602 15.434 34.6602 14.3669C34.6602 12.948 35.5075 11.7521 36.5097 11.7521C36.9505 11.7521 37.2843 11.9299 37.5952 12.3339L37.8474 10.8181H38.9684L38.1027 16.063ZM36.4228 15.0773C36.9525 15.0773 37.3241 14.4849 37.3241 13.64C37.3241 13.0979 37.1125 12.8034 36.7218 12.8034C36.2062 12.8034 35.8402 13.398 35.8402 14.2368C35.8402 14.7951 36.0363 15.0773 36.4228 15.0773Z" fill="white"/>
<path fill-rule="evenodd" clip-rule="evenodd" d="M33.1132 11.7975C32.9711 13.1178 32.7183 14.4549 32.5205 15.7762L32.4688 16.063H33.6057C34.0124 13.4545 34.1102 12.9454 34.7482 13.009C34.8497 12.4751 35.0388 12.0075 35.1796 11.7718C34.7035 11.6738 34.4376 11.9395 34.0892 12.4445C34.117 12.226 34.1671 12.014 34.1577 11.7975H33.1132Z" fill="white"/>
<path fill-rule="evenodd" clip-rule="evenodd" d="M23.7544 11.7975C23.6116 13.1178 23.3584 14.4549 23.161 15.7762L23.1094 16.063H24.2466C24.6535 13.4545 24.751 12.9454 25.388 13.009C25.4901 12.4751 25.6796 12.0075 25.8201 11.7718C25.3445 11.6738 25.0781 11.9395 24.7303 12.4445C24.7578 12.226 24.8082 12.014 24.7983 11.7975H23.7544Z" fill="white"/>
</svg>
