<svg width="91" height="18" viewBox="0 0 91 18" xmlns="http://www.w3.org/2000/svg">
<path d="M89.5,4.2L83.8,1C82.1,0,80,1.2,80,3.1v0.3c0,0.3,0.2,0.6,0.4,0.7l1.1,0.6c0.3,0.2,0.7,0,0.7-0.4V3.5c0-0.4,0.5-0.7,0.8-0.5
	l5,2.8c0.4,0.2,0.4,0.7,0,0.9l-5,2.8c-0.4,0.2-0.8-0.1-0.8-0.5V8.7c0-1.9-2.1-3.1-3.8-2.1l-5.7,3.2c-1.7,0.9-1.7,3.3,0,4.3l5.7,3.2
	c1.7,0.9,3.8-0.2,3.8-2.1v-0.3c0-0.3-0.2-0.6-0.4-0.7l-1.1-0.6c-0.3-0.2-0.7,0-0.7,0.4v0.8c0,0.4-0.5,0.7-0.8,0.5l-5-2.8
	c-0.4-0.2-0.4-0.7,0-0.9l5-2.8C79.6,8.4,80,8.7,80,9.1v0.4c0,1.9,2.1,3.1,3.8,2.1l5.7-3.2C91.2,7.5,91.2,5.1,89.5,4.2z"/>
<path d="M71.1,4.4l-5.8,12.8h-2.4l2.3-5l-3.8-7.9h2.8l2.2,5.2l2.3-5.2H71.1z"/>
<path d="M58.1,8.9c0-1.5-1.1-2.6-2.5-2.6c-1.4,0-2.5,1.1-2.5,2.6c0,1.5,1.1,2.6,2.5,2.6C57,11.5,58.1,10.5,58.1,8.9z M58.1,13.5
	v-1.2c-0.7,0.8-1.7,1.3-2.9,1.3c-2.6,0-4.5-2-4.5-4.7c0-2.7,2-4.7,4.5-4.7c1.2,0,2.2,0.5,2.9,1.3V4.4h2.3v9.1H58.1z"/>
<path d="M47.5,8.9c0-1.5-1.1-2.6-2.5-2.6c-1.4,0-2.5,1.1-2.5,2.6c0,1.5,1.1,2.6,2.5,2.6C46.4,11.5,47.5,10.4,47.5,8.9z M40.1,4.4
	h2.3v1.2c0.7-0.8,1.7-1.3,2.9-1.3c2.5,0,4.5,2,4.5,4.7c0,2.7-2,4.7-4.5,4.7c-1.2,0-2.1-0.5-2.8-1.2v4.8h-2.4V4.4z"/>
<path d="M36,5.3c0,0,0.6-1.1,2-1.1c0.6,0,1,0.2,1,0.2v2.3c0,0-0.9-0.5-1.7-0.4c-0.8,0.1-1.3,0.8-1.3,1.8v5.4h-2.4V4.4H36V5.3z"/>
<path d="M30.1,8.1c-0.2-1.2-1.2-1.9-2.3-1.9c-1.2,0-2.1,0.7-2.3,1.9H30.1z M25.4,9.5c0.2,1.3,1.2,2.1,2.4,2.1c1,0,1.8-0.5,2.2-1.2
	h2.4c-0.6,1.9-2.3,3.2-4.7,3.2c-2.8,0-4.8-1.9-4.8-4.7c0-2.7,2.1-4.7,4.8-4.7c2.8,0,4.8,2,4.8,4.7c0,0.2,0,0.4-0.1,0.6H25.4z"/>
<path d="M21.6,11.5c-0.8,0-1-0.3-1-1.1v-4h1.5v-2h-1.5V2.2h-2.3v2.2h-3V3.8c0-0.8,0.3-1.1,1.1-1.1h0.5V1h-1.1
	c-1.9,0-2.8,0.6-2.8,2.5v0.9h-1.3v2h1.3v7.1h2.3V6.4h3v4.5c0,1.9,0.7,2.7,2.6,2.7h1.2v-2H21.6z"/>
<path d="M8.2,8.9c0-1.5-1.1-2.6-2.5-2.6c-1.4,0-2.5,1.1-2.5,2.6c0,1.5,1.1,2.6,2.5,2.6C7.1,11.5,8.2,10.5,8.2,8.9z M8.2,13.5v-1.2
	c-0.7,0.8-1.7,1.3-2.9,1.3c-2.6,0-4.5-2-4.5-4.7c0-2.7,2-4.7,4.5-4.7c1.2,0,2.2,0.5,2.9,1.3V4.4h2.3v9.1H8.2z"/>
</svg>