<svg width="20" height="20" viewBox="0 0 20 20" xmlns="http://www.w3.org/2000/svg">
<path d="M4.8,7V6.1c0-1.4,0.5-2.7,1.5-3.7S8.6,1,10,1c1.4,0,2.7,0.5,3.7,1.5s1.5,2.3,1.5,3.7V7h1.7
	c0.2,0,0.4,0.1,0.6,0.3c0.2,0.2,0.3,0.4,0.3,0.6v10.3c0,0.2-0.1,0.4-0.3,0.6c-0.2,0.2-0.4,0.3-0.6,0.3H3.1c-0.2,0-0.4-0.1-0.6-0.3
	c-0.2-0.2-0.3-0.4-0.3-0.6V7.8c0-0.2,0.1-0.4,0.3-0.6C2.7,7.1,2.9,7,3.1,7H4.8z M16,8.7H4v8.6H16V8.7z M9.1,13.6
	c-0.3-0.2-0.6-0.5-0.7-0.8c-0.1-0.4-0.2-0.7-0.1-1.1c0.1-0.4,0.3-0.7,0.6-0.9c0.3-0.2,0.7-0.4,1-0.4c0.4,0,0.7,0.1,1,0.4
	c0.3,0.2,0.5,0.6,0.6,0.9c0.1,0.4,0.1,0.8-0.1,1.1c-0.1,0.4-0.4,0.6-0.7,0.8v2H9.1V13.6z M6.6,7h6.9V6.1c0-0.9-0.4-1.8-1-2.4
	s-1.5-1-2.4-1S8.2,3,7.6,3.7s-1,1.5-1,2.4V7z"/>
</svg>
