<svg width="28" height="28" viewBox="0 0 28 28" xmlns="http://www.w3.org/2000/svg">
<path d="M14 28C6.25333 28 0 21.7467 0 14C0 12.9733 0.0933333 12.04 0.28 11.1067H7C6.62667 12.04 6.44 12.9733 6.44 14C6.44 18.2 9.8 21.56 14 21.56C18.2 21.56 21.56 18.2 21.56 14C21.56 12.9733 21.3733 11.9467 21 11.1067H27.72C27.9067 12.04 28 12.9733 28 14C28 21.7467 21.7467 28 14 28ZM19.5067 8.77333C18.1067 7.37333 16.1467 6.44 14 6.44C11.8533 6.44 9.89333 7.37333 8.49333 8.77333H1.02667C3.08 3.64 8.12 0 14 0C19.88 0 24.92 3.64 26.9733 8.77333H19.5067ZM19.2267 14C19.2267 16.8933 16.8933 19.2267 14 19.2267C11.1067 19.2267 8.77333 16.8933 8.77333 14C8.77333 11.1067 11.1067 8.77333 14 8.77333C16.8933 8.77333 19.2267 11.1067 19.2267 14Z"/>
</svg>