<svg width="20" height="20" viewBox="0 0 20 20" xmlns="http://www.w3.org/2000/svg">
<path d="M3.3,2.6L10,1.1l6.7,1.5c0.2,0,0.3,0.1,0.5,0.3s0.2,0.3,0.2,0.5v8.1c0,0.8-0.2,1.6-0.6,2.3c-0.4,0.7-0.9,1.3-1.6,1.8
	L10,18.9l-5.1-3.4c-0.7-0.4-1.2-1-1.6-1.8c-0.4-0.7-0.6-1.5-0.6-2.3V3.4c0-0.2,0.1-0.4,0.2-0.5C3,2.7,3.2,2.6,3.3,2.6z M4.3,4v7.4
	c0,0.5,0.1,1.1,0.4,1.5c0.3,0.5,0.6,0.9,1.1,1.2L10,17l4.2-2.8c0.4-0.3,0.8-0.7,1.1-1.2c0.3-0.5,0.4-1,0.4-1.5V4L10,2.7L4.3,4z
	 M10,9.2C9.5,9.2,8.9,9,8.6,8.6C8.2,8.2,8,7.7,8,7.2s0.2-1.1,0.6-1.4C8.9,5.4,9.5,5.1,10,5.1c0.5,0,1.1,0.2,1.4,0.6
	C11.8,6.1,12,6.6,12,7.2s-0.2,1.1-0.6,1.4C11.1,9,10.5,9.2,10,9.2z M6.4,13.2c0.1-0.9,0.5-1.7,1.2-2.3S9.1,10,10,10
	c0.9,0,1.8,0.3,2.4,0.9c0.7,0.6,1.1,1.4,1.2,2.3H6.4z"/>
</svg>