<svg width="20" height="20" viewBox="0 0 20 20" xmlns="http://www.w3.org/2000/svg">
<path d="M14.9,7.1h1.6c0.2,0,0.4,0.1,0.6,0.2c0.2,0.2,0.2,0.4,0.2,0.6v9.9c0,0.2-0.1,0.4-0.2,0.6c-0.2,0.2-0.4,0.2-0.6,0.2H3.4
	c-0.2,0-0.4-0.1-0.6-0.2c-0.2-0.2-0.2-0.4-0.2-0.6V7.9c0-0.2,0.1-0.4,0.2-0.6C3,7.2,3.2,7.1,3.4,7.1h1.6V6.3c0-1.3,0.5-2.6,1.4-3.5
	C7.4,1.9,8.7,1.3,10,1.3c1.3,0,2.6,0.5,3.5,1.4s1.4,2.2,1.4,3.5V7.1z M4.2,8.8V17h11.5V8.8H4.2z M9.2,12.1h1.6v1.6H9.2V12.1z
	 M5.9,12.1h1.6v1.6H5.9V12.1z M12.5,12.1h1.6v1.6h-1.6V12.1z M13.3,7.1V6.3c0-0.9-0.3-1.7-1-2.3S10.9,3,10,3C9.1,3,8.3,3.3,7.7,4
	s-1,1.5-1,2.3v0.8H13.3z"/>
</svg>