<svg width="25" height="24" viewBox="0 0 25 24" xmlns="http://www.w3.org/2000/svg">
<path d="M5.083 17.321C4.053 16.227 3.5 15 3.5 13.011C3.5 9.511 5.957 6.374 9.53 4.823L10.423 6.201C7.088 8.005 6.436 10.346 6.176 11.822C6.713 11.544 7.416 11.447 8.105 11.511C9.909 11.678 11.331 13.159 11.331 15C11.331 15.9283 10.9623 16.8185 10.3059 17.4749C9.6495 18.1313 8.75926 18.5 7.831 18.5C6.758 18.5 5.732 18.01 5.083 17.321ZM15.083 17.321C14.053 16.227 13.5 15 13.5 13.011C13.5 9.511 15.957 6.374 19.53 4.823L20.423 6.201C17.088 8.005 16.436 10.346 16.176 11.822C16.713 11.544 17.416 11.447 18.105 11.511C19.909 11.678 21.331 13.159 21.331 15C21.331 15.9283 20.9623 16.8185 20.3059 17.4749C19.6495 18.1313 18.7593 18.5 17.831 18.5C16.758 18.5 15.732 18.01 15.083 17.321Z"/>
</svg>