<svg width="20" height="20" viewBox="0 0 20 20" xmlns="http://www.w3.org/2000/svg">
<path d="M10,18.2c-4.5,0-8.2-3.7-8.2-8.2c0-4.5,3.7-8.2,8.2-8.2c4.5,0,8.2,3.7,8.2,8.2C18.2,14.5,14.5,18.2,10,18.2z
	 M10,16.5c1.7,0,3.4-0.7,4.6-1.9s1.9-2.9,1.9-4.6s-0.7-3.4-1.9-4.6S11.7,3.5,10,3.5c-1.7,0-3.4,0.7-4.6,1.9S3.5,8.3,3.5,10
	s0.7,3.4,1.9,4.6S8.3,16.5,10,16.5z M5.9,10h1.6c0,0.6,0.3,1.3,0.7,1.7c0.5,0.5,1.1,0.7,1.7,0.7c0.6,0,1.3-0.3,1.7-0.7
	c0.5-0.5,0.7-1.1,0.7-1.7h1.6c0,1.1-0.4,2.1-1.2,2.9c-0.8,0.8-1.8,1.2-2.9,1.2c-1.1,0-2.1-0.4-2.9-1.2S5.9,11.1,5.9,10z"/>
</svg>
