<svg width="28" height="28" viewBox="0 0 28 28" xmlns="http://www.w3.org/2000/svg">
<path d="M28 14C28 21.7467 21.7467 28 14 28C6.25333 28 0 21.7467 0 14C0 6.25333 6.25333 0 14 0C21.7467 0 28 6.25333 28 14ZM24.5467 8.86667C23.8 9.14667 23.0533 9.42667 22.2133 9.52C23.0533 9.05333 23.6133 8.21333 23.8933 7.28C23.1467 7.74667 22.3067 8.02667 21.3733 8.21333C20.6267 7.46667 19.6 6.90667 18.48 6.90667C16.24 6.90667 14.56 8.68 14.56 10.92C14.56 11.2 14.56 11.5733 14.6533 11.8533C11.3867 11.6667 8.4 10.08 6.44 7.65333C6.16 8.30667 5.88 8.96 5.88 9.70667C5.88 11.1067 6.53333 12.32 7.65333 12.9733C7 12.9733 6.34667 12.7867 5.88 12.5067C5.88 14.4667 7.28 16.0533 9.05333 16.4267C8.77333 16.52 8.4 16.52 8.02667 16.52C7.74667 16.52 7.46667 16.52 7.28 16.4267C7.74667 18.0133 9.24 19.04 11.0133 19.1333C9.61333 20.16 7.93333 20.9067 6.06667 20.9067C5.78667 20.9067 5.41333 20.9067 5.13333 20.8133C6.90667 21.9333 8.96 22.5867 11.2 22.5867C18.48 22.5867 22.4933 16.52 22.4933 11.2933V10.7333C23.3333 10.36 23.9867 9.61333 24.5467 8.86667Z"/>
</svg>