<svg width="20" height="20" viewBox="0 0 20 20" xmlns="http://www.w3.org/2000/svg">
<path d="M16.6667 18.3333H15V16.6667C15 16.0036 14.7366 15.3678 14.2678 14.8989C13.799 14.4301 13.1631 14.1667 12.5 14.1667H7.50004C6.837 14.1667 6.20111 14.4301 5.73227 14.8989C5.26343 15.3678 5.00004 16.0036 5.00004 16.6667V18.3333H3.33337V16.6667C3.33337 15.5616 3.77236 14.5018 4.55376 13.7204C5.33516 12.939 6.39497 12.5 7.50004 12.5H12.5C13.6051 12.5 14.6649 12.939 15.4463 13.7204C16.2277 14.5018 16.6667 15.5616 16.6667 16.6667V18.3333ZM10 10.8333C9.34343 10.8333 8.69325 10.704 8.08662 10.4527C7.47999 10.2015 6.9288 9.83317 6.46451 9.36888C6.00021 8.90458 5.63192 8.35339 5.38064 7.74676C5.12937 7.14013 5.00004 6.48995 5.00004 5.83334C5.00004 5.17673 5.12937 4.52655 5.38064 3.91993C5.63192 3.3133 6.00021 2.7621 6.46451 2.29781C6.9288 1.83352 7.47999 1.46522 8.08662 1.21395C8.69325 0.962672 9.34343 0.833343 10 0.833344C11.3261 0.833344 12.5979 1.36013 13.5356 2.29781C14.4733 3.23549 15 4.50726 15 5.83334C15 7.15943 14.4733 8.4312 13.5356 9.36888C12.5979 10.3066 11.3261 10.8333 10 10.8333ZM10 9.16668C10.8841 9.16668 11.7319 8.81549 12.3571 8.19037C12.9822 7.56524 13.3334 6.7174 13.3334 5.83334C13.3334 4.94929 12.9822 4.10144 12.3571 3.47632C11.7319 2.8512 10.8841 2.50001 10 2.50001C9.11598 2.50001 8.26814 2.8512 7.64302 3.47632C7.0179 4.10144 6.66671 4.94929 6.66671 5.83334C6.66671 6.7174 7.0179 7.56524 7.64302 8.19037C8.26814 8.81549 9.11598 9.16668 10 9.16668Z"/>
</svg>