<svg width="22" height="22" viewBox="0 0 22 22" xmlns="http://www.w3.org/2000/svg">
<path d="M11.3,1C5.8,1,2.9,4.5,2.9,8.3c0,1.8,1,4,2.6,4.7c0.5,0.2,0.4,0,0.8-1.5c0-0.1,0-0.2-0.1-0.3
	c-2.3-2.6-0.4-8,4.8-8c7.6,0,6.2,10.5,1.3,10.5c-1.2,0-2.2-1-1.9-2.2c0.4-1.4,1.1-3,1.1-4c0-2.6-3.9-2.2-3.9,1.2
	c0,1.1,0.4,1.8,0.4,1.8s-1.3,5.1-1.5,6c-0.4,1.6,0.1,4.2,0.1,4.4c0,0.1,0.2,0.2,0.2,0.1c0.1-0.2,1.6-2.3,2.1-3.9
	c0.2-0.6,0.8-2.9,0.8-2.9c0.4,0.8,1.6,1.4,2.9,1.4c3.8,0,6.6-3.4,6.6-7.5C19.1,4,15.7,1,11.3,1L11.3,1z"/>
</svg>
