<svg width="28" height="28" viewBox="0 0 28 28" xmlns="http://www.w3.org/2000/svg">
<path d="M28 14C28 21.7467 21.7467 28 14 28C6.25333 28 0 21.7467 0 14C0 6.25333 6.25333 0 14 0C21.7467 0 28 6.25333 28 14ZM10.5467 7.28C10.5467 6.16 9.61333 5.22667 8.21333 5.22667C6.81333 5.22667 5.88 6.06667 5.88 7.28C5.88 8.4 6.81333 9.33333 8.21333 9.33333C9.61333 9.33333 10.5467 8.4 10.5467 7.28ZM9.89333 11.1067H6.44V21H9.98667V11.1067H9.89333ZM22.7733 15.7733C22.7733 12.6 21.1867 10.5467 18.6667 10.5467C17.2667 10.5467 16.24 11.3867 15.7733 12.6933L15.68 11.2H12.1333C12.1333 11.5733 12.2267 13.5333 12.2267 13.5333V21.0933H15.7733V15.8667C15.7733 14.4667 16.4267 13.5333 17.4533 13.5333C18.48 13.5333 19.2267 14.0933 19.2267 15.8667V21.0933H22.7733V15.7733Z"/>
</svg>