<svg width="20" height="20" viewBox="0 0 20 20" xmlns="http://www.w3.org/2000/svg">
<path d="M4.8,3.7C8,1,12.8,1.2,15.8,4.2c3.2,3.2,3.2,8.4,0,11.5c-3.2,3.2-8.4,3.2-11.5,0c-1-1-1.7-2.2-2.1-3.5
	C1.8,10.9,1.7,9.5,2,8.2l0.1-0.3l1.6,0.4c-0.4,1.5-0.2,3.1,0.4,4.5s1.8,2.5,3.2,3.1c1.4,0.6,3,0.8,4.5,0.4c1.5-0.4,2.8-1.3,3.6-2.6
	c0.9-1.3,1.3-2.8,1.1-4.3s-0.8-3-1.9-4c-1.1-1.1-2.5-1.7-4.1-1.8C8.9,3.4,7.4,3.8,6.2,4.7L6,4.8l0.8,0.8L3.1,6.5l0.9-3.8L4.8,3.7
	L4.8,3.7z M10.8,5.1v1.6h2v1.6H8.4c-0.1,0-0.2,0-0.3,0.1C8,8.5,8,8.6,8,8.7C8,8.8,8,8.9,8,9c0.1,0.1,0.2,0.1,0.3,0.2l0.1,0h3.3
	c0.5,0,1.1,0.2,1.4,0.6c0.4,0.4,0.6,0.9,0.6,1.4c0,0.5-0.2,1.1-0.6,1.4c-0.4,0.4-0.9,0.6-1.4,0.6h-0.8v1.6H9.2v-1.6h-2v-1.6h4.5
	c0.1,0,0.2,0,0.3-0.1c0.1-0.1,0.1-0.2,0.1-0.3c0-0.1,0-0.2-0.1-0.3c-0.1-0.1-0.2-0.1-0.3-0.2l-0.1,0H8.4c-0.5,0-1.1-0.2-1.4-0.6
	C6.5,9.8,6.3,9.3,6.3,8.8c0-0.5,0.2-1.1,0.6-1.4c0.4-0.4,0.9-0.6,1.4-0.6h0.8V5.1H10.8z"/>
</svg>