<svg width="20" height="20" viewBox="0 0 20 20" xmlns="http://www.w3.org/2000/svg">
<path d="M14.6536 16.9397L13.1803 19.4916C13.0749 19.6743 12.904 19.8103 12.7023 19.8721C12.5006 19.9338 12.2829 19.9168 12.0933 19.8243C11.7654 19.6639 11.5011 19.5267 11.3019 19.4117C4.92433 15.7296 2.73947 7.57557 6.42155 1.19801C6.53655 0.998829 6.69612 0.747436 6.90058 0.444975C7.0186 0.270093 7.19856 0.146486 7.40416 0.0990975C7.60975 0.0517087 7.82566 0.0840656 8.00832 0.189639L10.5602 1.66297C10.6498 1.71456 10.717 1.79761 10.7487 1.89597C10.7805 1.99433 10.7746 2.10099 10.7321 2.19523C10.6529 2.3708 10.5918 2.51162 10.5483 2.62027C10.1138 3.704 9.84572 4.84719 9.75302 6.01108C9.73824 6.195 9.59392 6.34165 9.41068 6.35902L7.21078 6.5727C6.88199 9.34127 7.62932 12.1303 9.29834 14.3636L11.3072 13.4507C11.3893 13.4135 11.4819 13.4062 11.5688 13.4302C11.6557 13.4541 11.7315 13.5079 11.7829 13.582C12.4454 14.5427 13.2494 15.3978 14.1675 16.1183C14.2595 16.1906 14.3824 16.2827 14.5378 16.3936C14.6215 16.4541 14.6797 16.5435 14.7012 16.6444C14.7228 16.7454 14.706 16.8508 14.6543 16.9401L14.6536 16.9397Z"/>
</svg>