<svg width="28" height="28" viewBox="0 0 28 28" xmlns="http://www.w3.org/2000/svg">
<path d="M14,0C6.3,0,0,6.3,0,14s6.3,14,14,14s14-6.3,14-14S21.7,0,14,0z M22,13.2c-1,1.9-2.3,3.7-3.7,5.3c-1.2,1.5-2.7,3.1-4.5,3.8
	c-2.1,0.8-3.3-0.8-4-2.5c-0.8-2-1.2-4.1-1.7-6.2C7.8,12.7,7.5,11.7,7,11c-0.7-0.9-1.5-0.1-2.3,0.4c-0.2-0.2-0.4-0.5-0.6-0.8
	c-0.3-0.4-0.2-0.4,0.3-0.8c1.1-1,2.2-2.1,3.4-2.9c1.1-0.8,2.6-1.3,3.6,0c0.9,1.1,0.9,2.9,1.2,4.3c0.2,1.4,0.5,2.9,1,4.3
	c0.1,0.4,0.4,1.1,0.9,1.2c0.6,0.1,1.2-1,1.5-1.4c0.8-1.1,1.8-2.5,1.6-3.9c-0.1-1.5-1.7-1.2-2.7-0.9c0.2-1.7,1.7-3.5,3.2-4.1
	c1.6-0.7,3.9-0.7,4.7,1.1C23.7,9.2,22.9,11.5,22,13.2z"/>
</svg>