<svg width="52" height="34" viewBox="0 0 52 34" fill="none" xmlns="http://www.w3.org/2000/svg">
<path d="M47.3742 0H4.42683C2.14525 0 0.400513 1.84167 0.400513 4.25V29.75C0.400513 32.1583 2.27946 34 4.42683 34H47.3742C49.6558 34 51.4005 32.1583 51.4005 29.75V4.25C51.4005 1.84167 49.5216 0 47.3742 0Z" fill="#B2FCE4"/>
<path d="M37.1737 9.63312L33.55 7.36645L29.9263 5.09979C27.5105 3.68312 24.4237 5.52479 24.4237 8.49979V9.06645C24.4237 9.34979 24.5579 9.63312 24.8263 9.77479L26.571 10.7665C27.1079 11.0498 27.6447 10.6248 27.6447 10.0581V8.92479C27.6447 8.35812 28.1816 7.93312 28.7184 8.21645L32.0737 10.1998L35.2947 12.3248C35.8316 12.6081 35.8316 13.3165 35.2947 13.5998L31.9395 15.5831L28.5842 17.8498C28.0474 18.1331 27.5105 17.7081 27.5105 17.1415V16.5748C27.5105 13.5998 24.4237 11.7581 22.0079 13.1748L18.3842 15.4415L14.7605 17.7081C12.3447 19.1248 12.3447 22.9498 14.7605 24.3665L18.3842 26.6331L22.0079 28.8998C24.4237 30.3165 27.5105 28.4748 27.5105 25.4998V24.9331C27.5105 24.6498 27.3763 24.3665 27.1079 24.2248L25.3631 23.2331C24.8263 22.9498 24.2895 23.3748 24.2895 23.9415V25.0748C24.2895 25.6415 23.7526 26.0665 23.2158 25.7831L19.8605 23.7998L16.5052 21.6748C15.9684 21.3915 15.9684 20.6831 16.5052 20.3998L19.8605 18.4165L23.2158 16.4331C23.7526 16.1498 24.2895 16.5748 24.2895 17.1415V17.7081C24.2895 20.6831 27.3763 22.5248 29.7921 21.1081L33.4158 18.8415L37.0395 16.5748C39.5895 14.8748 39.5895 11.1915 37.1737 9.63312Z" fill="black"/>
</svg>
