<svg width="51" height="34" viewBox="0 0 51 34" fill="none" xmlns="http://www.w3.org/2000/svg">
<path d="M46.4332 0H4.56728C4.39288 0 4.21818 0 4.04409 0.000962591C3.89711 0.00224605 3.75045 0.00385036 3.60347 0.00802159C3.28334 0.0170058 2.96043 0.0368993 2.64429 0.0959382C2.32725 0.152503 2.02007 0.257941 1.73287 0.40878C1.1555 0.714589 0.68621 1.20329 0.392546 1.80454C0.247439 2.10373 0.146176 2.42387 0.0921282 2.75429C0.0348177 3.08382 0.0160223 3.41977 0.0073949 3.75282C0.00363971 3.90574 0.00138004 4.05869 0.000616242 4.21166C0 4.39262 0 4.57423 0 4.75616V29.2438C0 29.4258 0 29.6071 0.000616242 29.789C0.0015406 29.9417 0.00338933 30.0948 0.0073949 30.2478C0.0160223 30.5802 0.0351258 30.9165 0.0921282 31.2457C0.146066 31.5761 0.247224 31.8963 0.392238 32.1955C0.538036 32.4943 0.728345 32.7672 0.956099 33.004C1.18346 33.2413 1.44554 33.4395 1.73256 33.5912C2.02435 33.7462 2.32323 33.8447 2.6446 33.9047C2.96043 33.9634 3.28334 33.9833 3.60347 33.9923C3.75045 33.9958 3.89711 33.9978 4.04409 33.9987C4.21818 34 4.39288 34 4.56728 34H46.4332C46.6073 34 46.782 34 46.9561 33.9987C47.1028 33.9981 47.2494 33.9958 47.397 33.9923C47.7165 33.9833 48.0394 33.9634 48.3562 33.9047C48.6733 33.8481 48.9805 33.7424 49.2676 33.5912C49.8447 33.285 50.3139 32.7964 50.6079 32.1955C50.7568 31.8916 50.851 31.5804 50.908 31.2457C50.9654 30.9165 50.9838 30.5802 50.9925 30.2478C50.9965 30.0948 50.9986 29.9417 50.9992 29.789C51.0005 29.6071 51.0005 29.4258 51.0005 29.2438V4.75648C51.0005 4.57455 51.0005 4.39294 50.9992 4.21134C50.9986 4.05848 50.9964 3.90563 50.9925 3.75282C50.9838 3.41977 50.9654 3.08382 50.908 2.75429C50.8544 2.42381 50.7532 2.10363 50.6079 1.80454C50.3141 1.2034 49.8449 0.714734 49.2676 0.40878C48.9804 0.258097 48.6732 0.152769 48.3562 0.0962591C48.0394 0.0368993 47.7165 0.0173266 47.397 0.00834246C47.2501 0.00445592 47.1031 0.00210281 46.9561 0.00128345C46.782 0 46.6073 0 46.4332 0Z" fill="black"/>
<path d="M46.4334 1.1333L46.9486 1.13426C47.0878 1.13523 47.2274 1.13683 47.3676 1.14068C47.612 1.14774 47.8973 1.16154 48.1635 1.21127C48.3946 1.25459 48.5887 1.32036 48.7748 1.41919C49.1472 1.61638 49.4498 1.9318 49.6388 2.31985C49.7331 2.51237 49.7959 2.71323 49.8375 2.95613C49.885 3.23014 49.8982 3.52823 49.9047 3.78396C49.9087 3.92834 49.9105 4.07273 49.9108 4.22033C49.9124 4.39905 49.9124 4.57745 49.9124 4.75649V29.2442C49.9124 29.4232 49.9124 29.6016 49.9112 29.7839C49.9105 29.9282 49.9087 30.0726 49.905 30.217C49.8982 30.4724 49.885 30.7705 49.8369 31.0477C49.802 31.2683 49.7349 31.482 49.6382 31.6814C49.4488 32.0696 49.1458 32.385 48.773 32.5821C48.5881 32.6803 48.3946 32.7461 48.1657 32.7891C47.8942 32.8394 47.5966 32.8532 47.3726 32.8597C47.2317 32.8629 47.0915 32.8651 46.9477 32.8658C46.7766 32.867 46.6047 32.867 46.4334 32.867H4.56068C4.39122 32.867 4.22175 32.867 4.0492 32.8658C3.91054 32.8651 3.77188 32.8632 3.63324 32.86C3.404 32.8536 3.10635 32.8394 2.83706 32.7894C2.62414 32.7524 2.41782 32.6821 2.22513 32.5808C2.04029 32.4831 1.87159 32.3552 1.72536 32.2022C1.57866 32.0497 1.45615 31.8739 1.36239 31.6814C1.26556 31.4808 1.19845 31.2661 1.16334 31.0445C1.11528 30.7676 1.10172 30.4708 1.09556 30.2173C1.09208 30.0725 1.09002 29.9275 1.08939 29.7826L1.08847 29.3568V4.64419L1.08909 4.21905C1.08972 4.07389 1.09178 3.92875 1.09525 3.78363C1.10203 3.52951 1.11528 3.23271 1.16365 2.95356C1.19883 2.73244 1.26594 2.51814 1.3627 2.31793C1.45637 2.12605 1.57838 1.95086 1.72628 1.79717C1.87287 1.64428 2.04175 1.51649 2.22667 1.41855C2.41889 1.31798 2.62456 1.24811 2.83675 1.21127C3.10327 1.16154 3.3889 1.14774 3.63355 1.14068C3.77282 1.13683 3.9124 1.13523 4.05075 1.13426L4.56746 1.1333H46.4334Z" fill="white"/>
<path d="M13.4061 11.4773C13.8387 10.9142 14.132 10.1579 14.0547 9.38525C13.4218 9.41798 12.6497 9.82002 12.2023 10.3838C11.8008 10.8664 11.4455 11.6541 11.538 12.3943C12.2485 12.4585 12.9584 12.0247 13.4061 11.4773Z" fill="black"/>
<path d="M14.0464 12.5395C13.0142 12.4753 12.1373 13.1491 11.6446 13.1491C11.1516 13.1491 10.397 12.5716 9.58079 12.5873C8.5187 12.6033 7.53333 13.229 6.99412 14.2237C5.8855 16.213 6.7014 19.165 7.77983 20.7853C8.30332 21.5875 8.93436 22.4699 9.76567 22.4381C10.5514 22.406 10.8592 21.9087 11.8137 21.9087C12.768 21.9087 13.0453 22.4381 13.8769 22.4221C14.739 22.406 15.2783 21.6199 15.8018 20.8177C16.4026 19.9033 16.6482 19.0209 16.6636 18.9728C16.6482 18.9567 15.0009 18.2986 14.9855 16.3253C14.9701 14.6729 16.279 13.8868 16.3407 13.8383C15.6015 12.6999 14.4466 12.5716 14.0461 12.5395" fill="black"/>
<path d="M24.3334 10.3032C26.5759 10.3032 28.1378 11.913 28.1378 14.2566C28.1378 16.6085 26.5439 18.2266 24.2774 18.2266H21.7945V22.3388H20.0006V10.3032H24.3334ZM21.7945 16.6586H23.8528C25.4149 16.6586 26.3036 15.7829 26.3036 14.2649C26.3036 12.7472 25.4146 11.8796 23.8608 11.8796H21.7945V16.6586Z" fill="black"/>
<path d="M28.5826 19.8446C28.5826 18.3015 29.7118 17.4176 31.7941 17.2841L34.0286 17.1422V16.4749C34.0286 15.4994 33.4121 14.9655 32.3148 14.9655C31.4096 14.9655 30.7527 15.4491 30.6171 16.1912H28.9989C29.0472 14.6318 30.4566 13.4976 32.3629 13.4976C34.4131 13.4976 35.7507 14.6151 35.7507 16.35V22.3383H34.093V20.8954H34.053C33.5803 21.8378 32.5389 22.4298 31.4096 22.4298C29.7439 22.4298 28.5826 21.3959 28.5826 19.8446ZM34.0286 19.069V18.3933L32.0345 18.5268C30.9129 18.6019 30.3287 19.0353 30.3287 19.7942C30.3287 20.5283 30.9372 21.0038 31.8903 21.0038C33.1073 21.0038 34.0286 20.1946 34.0286 19.069Z" fill="black"/>
<path d="M37.2753 25.5575V24.1149C37.3874 24.1313 37.6595 24.1479 37.8037 24.1479C38.5965 24.1479 39.0451 23.7982 39.3175 22.8969L39.4777 22.3633L36.4421 13.606H38.3161L40.4307 20.7118H40.4708L42.5851 13.606H44.4113L41.2636 22.8051C40.5426 24.9154 39.7177 25.6079 37.9719 25.6079C37.8357 25.6079 37.3951 25.5912 37.2753 25.5575Z" fill="black"/>
</svg>
