<svg width="52" height="34" viewBox="0 0 52 34" fill="none" xmlns="http://www.w3.org/2000/svg">
<path opacity="0.07" d="M47.3742 0H4.42683C2.14525 0 0.400513 1.84167 0.400513 4.25V29.75C0.400513 32.1583 2.27946 34 4.42683 34H47.3742C49.6558 34 51.4005 32.1583 51.4005 29.75V4.25C51.4005 1.84167 49.5216 0 47.3742 0Z" fill="black"/>
<path d="M47.3737 1.41602C48.85 1.41602 50.0579 2.69102 50.0579 4.24935V29.7493C50.0579 31.3077 48.85 32.5827 47.3737 32.5827H4.42634C2.95002 32.5827 1.74213 31.3077 1.74213 29.7493V4.24935C1.74213 2.69102 2.95002 1.41602 4.42634 1.41602H47.3737Z" fill="white"/>
<path d="M32.4763 11.759C32.7447 10.3423 32.4763 9.35065 31.671 8.50065C30.8658 7.50898 29.3895 7.08398 27.5105 7.08398H22.0079C21.6052 7.08398 21.3368 7.36732 21.2026 7.79232L19.1895 22.1007C19.1895 22.384 19.3237 22.6673 19.5921 22.6673H23.2158L23.7526 17.8507L26.1684 14.734L32.4763 11.759Z" fill="#003087"/>
<path d="M32.4769 11.7583L32.2085 12.0416C31.5375 16.0083 29.2559 17.425 26.0348 17.425H24.5585C24.1559 17.425 23.8875 17.7083 23.7532 18.1333L22.948 23.6583L22.6796 25.075C22.6796 25.3583 22.8138 25.6416 23.0822 25.6416H25.9006C26.3032 25.6416 26.5717 25.3583 26.5717 25.075V24.9333L27.1085 21.5333V21.3916C27.1085 21.1083 27.5111 20.825 27.7796 20.825H28.1822C31.0006 20.825 33.148 19.6916 33.6848 16.2916C33.9532 14.875 33.819 13.7416 33.148 12.8916C33.0138 12.1833 32.7453 11.9 32.4769 11.7583Z" fill="#3086C8"/>
<path d="M31.6719 11.4753C31.5377 11.3336 31.4035 11.3336 31.2693 11.3336C31.1351 11.3336 31.0008 11.3336 30.8666 11.192C30.464 11.0503 29.9272 11.0503 29.3903 11.0503H25.364C25.2298 11.0503 25.0956 11.0503 25.0956 11.192C24.8272 11.3336 24.693 11.4753 24.693 11.7586L23.7535 17.992V18.1336C23.7535 17.7086 24.1561 17.4253 24.5587 17.4253H26.3035C29.6587 17.4253 31.8061 16.0086 32.4772 12.042V11.7586C32.343 11.617 32.0745 11.4753 31.8061 11.4753H31.6719Z" fill="#012169"/>
</svg>
